<svg width="105" height="24" fill="none" xmlns="http://www.w3.org/2000/svg"><path d="M74.77 21.628c.237 0 .502.083.66.275.133.165.185.384.185.604 0 .33-.132.66-.396.906a1.183 1.183 0 01-.74.275c-.265 0-.503-.082-.636-.275a.983.983 0 01-.211-.604c0-.33.158-.659.397-.906.238-.192.476-.275.74-.275zm13.541-8.761l-4.205 10.71h-1.322l-1.244-8.65-3.597 8.65h-1.348l-1.27-10.683h1.666l.767 8.706h.027l3.623-8.734h1.164l1.375 8.734 3.2-8.734h1.164zm6.533 9.228s-1.005 1.703-3.49 1.703c-2.328 0-4.047-1.428-4.047-4.312 0-4.093 2.09-6.784 5.157-6.784 1.984 0 3.121 1.29 3.121 2.829 0 3.02-3.518 3.24-5.766 3.24h-.925c-.027.303-.027.605-.027.907 0 2.225 1.164 3.186 2.75 3.186 1.826 0 2.698-1.264 2.698-1.264l.53.495zm-5.871-4.175h.873c1.877 0 4.39-.22 4.39-2.527 0-1.016-.688-1.812-1.957-1.812-1.772 0-2.962 1.62-3.306 4.34zm8.965-10.354l1.508-.082-.9 6.646h.053s.82-1.483 2.936-1.483c2.09 0 3.465 1.593 3.465 4.284 0 3.763-1.799 6.84-5.157 6.84-1.667 0-2.38-.825-2.566-1.044l-.397.823h-1.084l2.142-15.984zm.45 7.608l-.873 6.619c.08.137.608.934 2.063.934 2.566 0 3.835-2.308 3.835-5.988 0-2.032-.899-3.048-2.46-3.048-1.719 0-2.539 1.51-2.539 1.51l-.026-.027zm-92.067-2.28h3.333l.978 7.608h.08l3.332-7.635h1.825l-5.104 10.71H8.464L6.32 12.895zM17.43 23.605h-2.725l1.455-10.71h2.75l-1.48 10.71zm.74-15.325c.396 0 .767.137 1.005.412.211.275.317.604.317.961 0 .522-.238 1.099-.634 1.51a1.817 1.817 0 01-1.138.413c-.396 0-.767-.138-1.005-.44-.238-.247-.317-.604-.317-.96 0-.523.238-1.072.661-1.457.317-.33.74-.439 1.11-.439zm7.326 6.262h-2.274l-.715 5.3a9.666 9.666 0 00-.105 1.346c0 .88.238 1.127.767 1.127.66 0 1.084-.193 1.084-.193l-.026 1.209s-.582.521-2.143.521c-1.64 0-2.486-.631-2.486-2.334 0-.275.027-.604.053-.934l.793-6.015h-.978l.185-1.29 1.217-.275 1.296-3.378h1.692l-.423 3.296h2.275l-.212 1.62zm8.384 9.063h-2.116l-.317-.933h-.026s-.609 1.18-2.698 1.18c-2.142-.027-3.597-1.702-3.597-4.421 0-3.845 2.169-6.756 5.316-6.756 1.904 0 2.301.878 2.301.878h.08l.502-.631h2.01L33.88 23.605zm-2.433-2.416l.847-6.07c-.053-.082-.318-.851-1.455-.851-1.693 0-2.804 1.757-2.804 5.575 0 1.62.609 2.307 1.614 2.307 1.058 0 1.666-.77 1.798-.961zm5.157-8.295H38.8l.238.961h.053s1.085-1.18 2.777-1.18c1.164 0 1.905.357 2.196 1.208.105-.11 1.137-1.208 3.015-1.208 1.64 0 2.433.714 2.433 2.416 0 .303-.053.66-.08 1.017l-1.004 7.47h-2.751l.978-7.25c.053-.33.053-.577.053-.825 0-.906-.343-1.098-.899-1.098-.82 0-1.428.714-1.587.934l-.053.741-1.005 7.526h-2.75l.978-7.251c.053-.33.053-.604.053-.824 0-.879-.317-1.071-.873-1.071-.82 0-1.454.631-1.56.769l-1.137 8.404h-2.751l1.481-10.739zm15.764 10.711h-2.75l1.454-10.71h2.75l-1.454 10.71zm.74-15.325c.397 0 .767.137 1.005.412.212.275.318.604.318.961 0 .522-.238 1.099-.635 1.51-.344.275-.74.413-1.137.413s-.767-.138-1.005-.44c-.238-.247-.318-.604-.318-.96 0-.523.238-1.072.662-1.457.29-.33.714-.439 1.11-.439zm2.01 4.614h2.195l.238.852h.053s.873-1.071 2.962-1.071c1.852 0 2.83.851 2.83 2.773 0 .275-.026.577-.053.907l-.978 7.25h-2.75s.846-6.371.951-7.03c.053-.303.053-.55.053-.797 0-1.044-.423-1.318-1.27-1.318-1.057 0-1.798.714-1.85.769l-1.138 8.377h-2.75l1.507-10.712zm17.217 10.711H70.22l-.318-.933h-.026s-.609 1.18-2.698 1.18c-2.169 0-3.623-1.675-3.623-4.421 0-3.845 2.169-6.756 5.316-6.756 1.904 0 2.3.878 2.3.878h.08l.503-.631h2.01l-1.428 10.683zm-2.46-2.416l.847-6.07c-.053-.082-.317-.851-1.454-.851-1.693 0-2.804 1.757-2.804 5.575 0 1.62.608 2.307 1.613 2.307 1.085 0 1.667-.77 1.799-.961z" fill="#747373"/><path d="M22.534 8.582c-.027-.33-.053-.631-.132-.934 0-.027-.08-.027-.212-.027a7.848 7.848 0 011.11-1.016C21.53 3.089 18.012.727 13.939.727 8.49.727 3.994 4.984 3.385 10.45a6.87 6.87 0 011.957-.797v2.115c0-4.944 3.862-8.926 8.596-8.926 3.676 0 6.797 2.39 8.04 5.74h2.143a15.178 15.178 0 00-1.587 0z" fill="#747373"/><path d="M3.385 10.45C1.35 11.686 0 13.966 0 16.602c0 3.928 3.068 7.114 6.85 7.114.185 0 .37 0 .53-.028-.054-.247-.292-1.455-.424-2.115h-.159c-2.645 0-4.787-2.224-4.787-4.97 0-2.225 1.402-4.093 3.306-4.725V9.681c-.688.137-1.322.412-1.93.77zm24.386-5.383c-1.666 0-3.2.55-4.443 1.51-.397.303-.767.66-1.111 1.017.106 0 .185 0 .211.027.08.302.106.632.133.934h1.613a5.405 5.405 0 013.623-1.4c2.725 0 4.973 2.004 5.475 4.668.423 0 1.508-.027 2.037 0-.53-3.817-3.703-6.756-7.538-6.756z" fill="#747373"/></svg>