<svg width="221" height="33" fill="none" xmlns="http://www.w3.org/2000/svg"><path d="M26.453 13.585c0 1.457.243 2.867.729 4.213a11.476 11.476 0 002.073 3.588 10.286 10.286 0 003.191 2.499c1.231.609 2.608.93 4.115.93 1.539 0 2.932-.321 4.195-.978 1.248-.657 2.317-1.506 3.191-2.563.875-1.058 1.54-2.259 2.025-3.589.47-1.33.713-2.69.713-4.084 0-1.458-.243-2.868-.745-4.214a11.76 11.76 0 00-2.09-3.572 10.19 10.19 0 00-3.191-2.467c-1.231-.609-2.592-.93-4.082-.93-1.539 0-2.932.321-4.196.962a9.888 9.888 0 00-3.19 2.547c-.875 1.057-1.54 2.259-2.026 3.589a11.773 11.773 0 00-.712 4.069zm10.108 13.6c-1.895 0-3.629-.384-5.216-1.153a12.948 12.948 0 01-4.05-3.06c-1.134-1.266-1.992-2.724-2.608-4.357a14.158 14.158 0 01-.923-5.014c0-1.795.324-3.493.988-5.143a14.158 14.158 0 012.705-4.341 12.78 12.78 0 014.082-2.996A11.734 11.734 0 0136.61 0c1.896 0 3.629.4 5.216 1.185 1.572.801 2.916 1.827 4.034 3.108a14.307 14.307 0 012.59 4.357 13.9 13.9 0 01.923 4.966c0 1.795-.324 3.493-.988 5.143a14.156 14.156 0 01-2.69 4.325 12.842 12.842 0 01-4.049 2.98c-1.571.753-3.272 1.12-5.086 1.12zm18.758-13.6c0 1.457.243 2.867.729 4.213a11.476 11.476 0 002.073 3.588 10.286 10.286 0 003.191 2.499c1.232.609 2.608.93 4.115.93 1.539 0 2.932-.321 4.195-.978a10.153 10.153 0 003.192-2.563c.874-1.058 1.539-2.259 2.024-3.589.47-1.33.713-2.69.713-4.084 0-1.458-.243-2.868-.745-4.214a11.759 11.759 0 00-2.09-3.572 10.19 10.19 0 00-3.19-2.467c-1.232-.609-2.593-.93-4.083-.93-1.539 0-2.932.321-4.195.962a9.888 9.888 0 00-3.191 2.547c-.875 1.057-1.54 2.259-2.025 3.589a12.166 12.166 0 00-.713 4.069zm10.108 13.6c-1.895 0-3.629-.384-5.216-1.153a12.948 12.948 0 01-4.05-3.06c-1.134-1.266-1.992-2.724-2.608-4.357a14.16 14.16 0 01-.923-5.014c0-1.795.324-3.493.988-5.143a14.16 14.16 0 012.705-4.341 12.78 12.78 0 014.082-2.996A11.734 11.734 0 0165.475 0c1.896 0 3.629.4 5.217 1.185 1.57.801 2.915 1.827 4.033 3.108a14.307 14.307 0 012.592 4.357 13.9 13.9 0 01.923 4.966c0 1.795-.324 3.493-.988 5.143a14.156 14.156 0 01-2.689 4.325 12.842 12.842 0 01-4.05 2.98c-1.57.753-3.256 1.12-5.086 1.12zM0 25.07l18.564-22.7H.308V0H21.69v2.099L3.337 24.814h18.305v2.37H0V25.07zm105.681 1.923V4.822l-9.962 17.157h-1.572L84.185 4.822v22.17h-2.689V0h2.77l10.659 18.47L105.648 0h2.722v26.993h-2.689z" fill="#3C3C3B"/><path d="M117.312 12.03h1.943v14.69h-1.943V12.03zm0-5.895h1.943v2.82h-1.943v-2.82zm18.693 20.585h-1.944v-8.2c0-1.747-.259-3.012-.777-3.813-.519-.785-1.329-1.186-2.414-1.186-.567 0-1.134.097-1.717.305a5.721 5.721 0 00-1.588.88 6.078 6.078 0 00-1.296 1.347 5.47 5.47 0 00-.826 1.681v8.987H123.5V12.03h1.765v3.333c.616-1.074 1.474-1.939 2.608-2.595a7.25 7.25 0 013.694-.994c.809 0 1.506.145 2.073.449.567.304 1.02.72 1.361 1.265.34.545.583 1.218.745 2.003.146.785.227 1.666.227 2.627v8.602h.032zm10.675-1.41c.47 0 .988-.095 1.523-.288a6.77 6.77 0 001.522-.769 5.88 5.88 0 001.215-1.153c.34-.449.535-.913.616-1.426v-4.533a5.31 5.31 0 00-.826-1.426 6.16 6.16 0 00-1.248-1.17 5.774 5.774 0 00-1.49-.784 4.66 4.66 0 00-3.742.224 5.39 5.39 0 00-1.668 1.346 5.813 5.813 0 00-1.069 1.906 6.79 6.79 0 00-.373 2.195c0 .785.146 1.537.421 2.258a6.173 6.173 0 001.166 1.875 5.792 5.792 0 001.75 1.281 5.375 5.375 0 002.203.465zm-.437 1.683c-1.021 0-1.977-.208-2.851-.641a7.067 7.067 0 01-2.252-1.682c-.632-.689-1.118-1.506-1.474-2.403a7.784 7.784 0 01-.535-2.867c0-1.042.179-2.019.519-2.948a7.71 7.71 0 011.409-2.435 6.693 6.693 0 012.138-1.65 6.162 6.162 0 012.722-.609c1.247 0 2.365.32 3.337.977.972.641 1.733 1.426 2.284 2.355V6.12h1.943v18.1c0 .529.227.785.681.785v1.698c-.292.064-.519.08-.681.08-.453 0-.858-.144-1.198-.432-.34-.288-.519-.64-.519-1.057v-1.442c-.583.961-1.393 1.714-2.397 2.29a6.118 6.118 0 01-3.126.85zm16.279 0c-1.619 0-2.818-.529-3.612-1.586-.794-1.058-1.182-2.643-1.182-4.758v-8.618h1.943v8.282c0 3.332 1.151 4.998 3.451 4.998.567 0 1.134-.096 1.684-.289a5.584 5.584 0 001.523-.817 6.18 6.18 0 001.247-1.265c.373-.48.665-1.041.891-1.666V12.03h1.944v12.206c0 .529.227.785.681.785v1.698c-.227.033-.422.065-.551.065h-.292c-.453-.017-.826-.177-1.117-.481-.292-.304-.422-.705-.422-1.218v-1.698c-.648 1.154-1.522 2.035-2.64 2.66a6.923 6.923 0 01-3.548.945zm17.22 0a10.55 10.55 0 01-3.386-.561c-1.101-.368-2.057-.913-2.851-1.634l.891-1.297c.842.672 1.685 1.185 2.559 1.521a7.622 7.622 0 002.787.513c1.198 0 2.154-.24 2.867-.72.713-.482 1.069-1.154 1.069-2.051 0-.417-.097-.753-.292-1.026-.194-.272-.469-.512-.842-.72-.373-.209-.842-.385-1.393-.545-.567-.16-1.215-.32-1.96-.497a26.646 26.646 0 01-2.219-.624 7.141 7.141 0 01-1.555-.705 2.503 2.503 0 01-.908-.978c-.194-.384-.291-.865-.291-1.457 0-.737.146-1.378.437-1.939a4.012 4.012 0 011.199-1.393c.502-.369 1.085-.641 1.766-.833a7.858 7.858 0 012.154-.289c1.134 0 2.171.177 3.11.545.924.368 1.685.849 2.252 1.458l-.94 1.121a5.096 5.096 0 00-2.008-1.265 7.101 7.101 0 00-2.463-.417c-.518 0-.988.048-1.425.16a3.246 3.246 0 00-1.15.497c-.34.224-.599.512-.778.865-.194.352-.291.753-.291 1.233 0 .4.065.721.194.961.13.24.356.449.648.641a5.92 5.92 0 001.15.48 20.5 20.5 0 001.701.433 38.2 38.2 0 012.511.673 8.366 8.366 0 011.814.785c.486.305.842.673 1.102 1.105.243.433.372.962.372 1.586 0 1.346-.518 2.42-1.571 3.22-1.085.77-2.495 1.154-4.26 1.154zm16.085-.977c-.113.064-.275.128-.502.224-.211.096-.47.192-.762.288-.291.096-.615.176-.971.257a5.25 5.25 0 01-1.134.112 4.22 4.22 0 01-1.199-.177 2.858 2.858 0 01-1.004-.528 2.443 2.443 0 01-.681-.881c-.178-.353-.259-.77-.259-1.234V13.552h-2.057v-1.521h2.057V7.065h1.944v4.966h3.418v1.521h-3.418v9.98c.032.545.227.946.583 1.202s.761.384 1.215.384a3.75 3.75 0 001.458-.272c.421-.176.68-.304.794-.384l.518 1.554zm9.833-12.303c-1.312.032-2.446.4-3.418 1.073-.972.673-1.652 1.602-2.057 2.787v9.131h-1.944V12.031h1.83v3.524c.551-1.121 1.296-2.019 2.219-2.643.924-.641 1.928-.962 2.997-.962.146 0 .276.017.373.033v1.73zm3.45 17.509l.437.048c.146.016.276.016.422.016.34 0 .615-.048.809-.144.195-.096.389-.305.584-.625.194-.32.405-.785.648-1.378.243-.608.567-1.41 1.004-2.419l-6.48-14.69h1.993l5.507 12.912 5.103-12.911h1.847l-7.695 18.95a3.418 3.418 0 01-1.036 1.426c-.486.4-1.151.609-1.977.609-.194 0-.372 0-.534-.016-.178-.016-.373-.032-.632-.064v-1.714z" fill="#EC974E"/><path d="M129.752 8.586c-.939-3.636-1.944-5.606-2.656-6.648a1.446 1.446 0 00-.81-.496h-.033a1.265 1.265 0 00-.243-.032h-.291c-.033 0-.049.016-.081.016-.065.016-.146.032-.211.048-.032.016-.065.016-.097.032a.58.58 0 00-.146.064l-.097.048a1.506 1.506 0 00-.583.609s0 .016-.016.016c-.017.032-.033.048-.033.08a1.51 1.51 0 00.081 1.378l.016.032c.114.24.26.512.47.817 1.312 1.842 3.985 3.684 4.617 4.133.032.016.065 0 .065 0 .064-.049.048-.097.048-.097zm11.323-3.348a1.51 1.51 0 00-.777-.608 25.186 25.186 0 01-.146-.048c-.016 0-.033-.016-.049-.016a.97.97 0 00-.227-.033h-.178a2.118 2.118 0 00-.534.113 4.27 4.27 0 00-1.086.608c-1.814 1.362-3.596 4.07-4.017 4.694a.077.077 0 000 .064c.033.032.065.016.065.016 2.576-.737 4.293-1.49 5.459-2.13.065-.032.13-.048.194-.097l.81-.496c.713-.417.94-1.362.486-2.067zm-5.896-2.819V2.21c0-.048-.016-.096-.032-.145 0-.032-.017-.08-.017-.112a1.474 1.474 0 00-.631-.865c-.017-.016-.033-.016-.049-.032l-.194-.096c-.017-.016-.033-.016-.065-.016-.033-.016-.081-.032-.114-.048a1.65 1.65 0 00-.68-.048 1.44 1.44 0 00-.713.304c-.016.016-.032.016-.048.032a6.152 6.152 0 00-.081.08c-.13.113-.227.257-.308.417a3.851 3.851 0 00-.405 1.137c-.486 2.211-.065 5.399.032 6.152.017.048.033.048.033.048.048.016.065-.032.065-.032 1.522-2.29 2.365-4.005 2.818-5.254.016-.033.016-.049.033-.065l.016-.064c.097-.256.162-.496.227-.704l.032-.113c0-.016 0-.048.016-.064.016-.048.033-.096.033-.144V2.5c.016-.032.016-.064.032-.08z" fill="#3C3C3B"/></svg>