<svg width="99" height="56" fill="none" xmlns="http://www.w3.org/2000/svg"><g clip-path="url(#clip0)"><path d="M24.262 12.214c0 1.3.209 2.598.625 3.794a10.343 10.343 0 001.824 3.222c.781.936 1.72 1.663 2.813 2.235 1.094.572 2.293.832 3.647.832a8.305 8.305 0 003.752-.884c1.094-.572 2.084-1.351 2.813-2.287.781-.935 1.355-2.027 1.771-3.222a11.2 11.2 0 00.626-3.69c0-1.3-.209-2.599-.678-3.794-.469-1.196-1.042-2.287-1.875-3.223-.782-.935-1.72-1.663-2.814-2.235-1.094-.571-2.292-.831-3.647-.831a8.305 8.305 0 00-3.751.883c-1.094.572-2.084 1.352-2.813 2.287-.782.936-1.355 2.027-1.772 3.223-.312 1.247-.52 2.442-.52 3.69zm8.961 12.213a10.64 10.64 0 01-4.636-1.039 11.058 11.058 0 01-3.595-2.755 13.414 13.414 0 01-2.345-3.898c-.573-1.455-.833-2.962-.833-4.521 0-1.611.312-3.17.885-4.626.573-1.455 1.407-2.754 2.397-3.898.99-1.143 2.24-2.027 3.647-2.703C30.15.312 31.66 0 33.276 0c1.667 0 3.23.364 4.636 1.091a11.975 11.975 0 013.595 2.807A12.228 12.228 0 0143.8 7.796c.573 1.455.833 2.962.833 4.47 0 1.61-.312 3.17-.886 4.625-.573 1.456-1.354 2.755-2.396 3.898-.99 1.144-2.24 2.027-3.595 2.703-1.407.624-2.917.935-4.533.935zm16.672-12.213c0 1.3.208 2.598.625 3.794a10.343 10.343 0 001.824 3.222c.781.936 1.72 1.663 2.813 2.235 1.094.572 2.293.832 3.647.832a8.305 8.305 0 003.751-.884c1.095-.572 2.084-1.351 2.814-2.287.781-.935 1.354-2.027 1.771-3.222a11.2 11.2 0 00.625-3.69c0-1.3-.208-2.599-.677-3.794-.469-1.196-1.042-2.287-1.875-3.223-.782-.935-1.72-1.663-2.814-2.235-1.094-.571-2.292-.831-3.647-.831a8.305 8.305 0 00-3.751.883c-1.094.572-2.084 1.352-2.813 2.287-.782.936-1.355 2.027-1.772 3.223-.26 1.247-.52 2.442-.52 3.69zm9.013 12.213a10.64 10.64 0 01-4.636-1.039 11.058 11.058 0 01-3.595-2.755 13.414 13.414 0 01-2.345-3.898c-.573-1.455-.834-2.962-.834-4.521 0-1.611.313-3.17.886-4.626.573-1.455 1.407-2.754 2.397-3.898.99-1.143 2.24-2.027 3.647-2.703C55.835.312 57.345 0 58.96 0c1.667 0 3.23.364 4.636 1.091a11.975 11.975 0 013.595 2.807 12.228 12.228 0 012.293 3.898c.573 1.455.833 2.962.833 4.47 0 1.61-.312 3.17-.885 4.625-.574 1.456-1.355 2.755-2.397 3.898-.99 1.144-2.24 2.027-3.595 2.703-1.407.624-2.918.935-4.533.935zM.713 22.556L17.229 2.183H.973V.052H19.99v1.871L3.683 22.297H19.99v2.13H.713v-1.87zm95.603 1.871V4.417l-8.856 15.49h-1.406L77.196 4.418v20.01h-2.397V.051h2.5l9.431 16.683L96.264.052h2.449v24.375h-2.397z" fill="#3C3C3B"/><path d="M19.99 39.24h1.459v11.278H19.99V39.24zm0-4.522h1.459v2.183H19.99v-2.183zm14.171 15.8h-1.459V44.23c0-1.35-.208-2.286-.573-2.91-.417-.624-.99-.884-1.823-.884-.417 0-.886.104-1.303.26-.417.156-.833.364-1.198.676a6.297 6.297 0 00-.99 1.04c-.313.415-.52.83-.625 1.299v6.912h-1.511V39.24h1.355v2.547a5.158 5.158 0 011.98-1.975c.833-.52 1.77-.78 2.813-.78.625 0 1.146.104 1.563.364.416.208.781.572 1.042.987.26.416.469.936.573 1.56.104.623.156 1.299.156 2.026v6.55zm8.128-1.091c.364 0 .73-.052 1.146-.208.417-.156.781-.364 1.146-.572a5.08 5.08 0 00.938-.883c.26-.364.417-.728.469-1.092v-3.534a5.844 5.844 0 00-.625-1.091 5.08 5.08 0 00-2.084-1.508 3.238 3.238 0 00-1.199-.208c-.625 0-1.146.104-1.667.364-.469.26-.938.624-1.25 1.04-.365.415-.625.935-.834 1.455-.208.572-.26 1.091-.26 1.663 0 .624.104 1.195.312 1.715a4.54 4.54 0 00.886 1.455c.365.416.833.728 1.354.988.521.312 1.042.416 1.668.416zm-.365 1.299c-.782 0-1.51-.156-2.188-.468-.677-.312-1.25-.727-1.72-1.3a5.547 5.547 0 01-1.094-1.87 6.248 6.248 0 01-.416-2.183c0-.78.104-1.56.364-2.235a5.547 5.547 0 011.094-1.87c.47-.52.99-.936 1.616-1.248.625-.312 1.302-.468 2.084-.468.937 0 1.77.26 2.552.728.73.52 1.303 1.091 1.72 1.819v-6.913h1.459v13.877c0 .416.156.624.52.624v1.3c-.208.051-.364.051-.52.051-.365 0-.626-.104-.886-.312-.26-.208-.365-.468-.365-.831v-1.092a5.392 5.392 0 01-1.823 1.767c-.782.416-1.563.624-2.397.624zm12.4 0c-1.25 0-2.136-.416-2.761-1.195-.626-.832-.886-2.027-.886-3.639V39.24h1.459v6.34c0 2.547.885 3.847 2.605 3.847a4 4 0 001.302-.208 4.904 4.904 0 001.146-.624c.365-.26.678-.572.938-.987.26-.364.521-.78.677-1.3V39.24h1.46v9.355c0 .416.155.624.52.624v1.3c-.156.051-.312.051-.417.051h-.208c-.365 0-.625-.156-.834-.364-.208-.208-.312-.52-.312-.935v-1.3a4.956 4.956 0 01-1.98 2.027c-.886.468-1.771.728-2.71.728zm13.076 0c-.885 0-1.719-.156-2.552-.416a7.502 7.502 0 01-2.188-1.247l.677-.988c.625.52 1.302.884 1.928 1.144.677.26 1.354.364 2.136.364.886 0 1.615-.208 2.188-.572.521-.364.834-.884.834-1.56 0-.311-.052-.571-.209-.779a2.218 2.218 0 00-.625-.572 3.945 3.945 0 00-1.042-.415c-.417-.104-.938-.26-1.459-.364a23.524 23.524 0 01-1.667-.468 9.044 9.044 0 01-1.198-.52 2.222 2.222 0 01-.678-.727c-.156-.26-.208-.676-.208-1.092 0-.572.104-1.04.313-1.507.208-.416.52-.78.885-1.091.365-.26.834-.468 1.355-.624.52-.156 1.042-.208 1.615-.208.886 0 1.667.156 2.345.416.729.26 1.302.675 1.719 1.091l-.73.884a4.223 4.223 0 00-1.51-.988 5.68 5.68 0 00-1.876-.312c-.365 0-.73.052-1.094.104-.313.104-.625.208-.886.364a1.44 1.44 0 00-.573.676c-.104.26-.208.572-.208.935 0 .312.052.572.156.728a.93.93 0 00.52.468c.21.156.522.26.887.364.364.103.781.208 1.302.311.73.156 1.355.364 1.928.52.573.156.99.364 1.354.624.365.208.626.52.834.831.208.312.26.728.26 1.196 0 1.04-.416 1.87-1.198 2.443-.938.675-2.032.987-3.334.987zm12.192-.78a2.504 2.504 0 01-.365.156c-.156.052-.364.156-.573.208-.208.052-.469.156-.73.208a4.58 4.58 0 01-.885.104 4.61 4.61 0 01-.886-.104 2.268 2.268 0 01-.781-.416c-.208-.156-.365-.415-.521-.675-.104-.26-.208-.572-.208-.936v-8.056H73.08v-1.143h1.563v-3.794H76.1v3.794h2.605v1.143H76.1v7.64c.052.416.157.728.47.936.26.208.572.312.937.312.417 0 .782-.052 1.094-.208l.625-.312.365 1.143zm7.451-9.406c-.99.051-1.876.311-2.605.83-.73.52-1.25 1.248-1.563 2.132v7.016h-1.46V39.24h1.407v2.703c.417-.884.99-1.56 1.668-2.027.73-.468 1.459-.728 2.292-.728h.26v1.351zM89.7 53.948a.66.66 0 01.312.052c.104.052.209 0 .313 0 .26 0 .469-.052.625-.104.156-.052.313-.208.469-.467.156-.26.312-.624.469-1.04.156-.468.416-1.091.781-1.87l-4.95-11.28h1.512l4.168 9.876 3.855-9.875h1.407l-5.835 14.5a2.66 2.66 0 01-.782 1.092c-.365.312-.886.468-1.51.468h-.418c-.104 0-.312 0-.469-.052v-1.3h.052z" fill="#EC974E"/><path d="M29.368 35.81c-.834-3.223-1.72-4.99-2.345-5.925-.208-.26-.469-.364-.73-.468h-.051c-.052 0-.157-.052-.209-.052h-.312c-.052 0-.104 0-.209.052-.052 0-.052 0-.104.052-.052 0-.104.052-.104.052-.052 0-.052 0-.104.052-.209.156-.417.312-.521.52 0 0 0 .052-.052.052 0 .052-.052.104-.052.155-.105.364-.052.728.156 1.092v.052c.104.208.208.468.417.728 1.146 1.663 3.543 3.274 4.064 3.69h.052c.104 0 .104-.052.104-.052zm10.003-3.015a1.44 1.44 0 00-.677-.572c-.052 0-.104-.051-.157-.051h-.052c-.052 0-.156 0-.208-.052h-.156c-.157 0-.313.052-.47.104a4.25 4.25 0 00-.99.571c-1.614 1.196-3.177 3.638-3.542 4.21v.052c.052.052.052 0 .052 0 2.293-.676 3.803-1.351 4.846-1.871.052 0 .104-.052.156-.104l.73-.416c.677-.363.885-1.195.468-1.87zm-5.21-2.495v-.467c-.104-.312-.26-.572-.573-.78 0 0-.052 0-.052-.052-.052-.052-.104-.052-.156-.104h-.053c-.052 0-.052-.052-.104-.052-.208-.052-.416-.052-.625-.052-.208 0-.417.104-.625.26l-.052.052-.052.052c-.104.104-.209.208-.26.364-.157.26-.261.572-.366 1.04-.416 1.974-.052 4.833 0 5.509 0 .052.053.052.053.052.052 0 .052-.052.052-.052 1.354-2.027 2.084-3.587 2.5-4.678 0 0 0-.052.053-.052v-.052c.104-.26.156-.416.208-.624l.052-.104v-.051c0-.053 0-.105.052-.105v-.052c-.052 0-.052-.051-.052-.051z" fill="#3C3C3B"/></g><defs><clipPath id="clip0"><path fill="#fff" transform="translate(.713)" d="M0 0h98v55.3H0z"/></clipPath></defs></svg>