<svg width="116" height="62" fill="none" xmlns="http://www.w3.org/2000/svg"><path d="M37.19 51.955C30.88 27.454 24.135 14.178 19.348 7.162c-1.415-1.727-3.373-2.914-5.44-3.346h-.218c-.544-.108-1.088-.216-1.632-.216H10.1c-.218 0-.326.108-.544.108-.435.108-.98.216-1.414.324-.218.108-.436.108-.653.216-.327.108-.653.216-.98.431l-.652.324c-1.74.972-3.046 2.483-3.917 4.102 0 0 0 .108-.109.108-.108.216-.217.324-.217.54a5.235 5.235 0 00-.435 1.187c-.762 2.59-.544 5.505.979 8.095l.109.216a37.968 37.968 0 003.155 5.505c8.812 12.412 26.764 24.825 31.007 27.847.217.108.435 0 .435 0 .435-.324.326-.648.326-.648zm76.728-22.475c-1.314-2.042-3.175-3.332-5.256-4.085l-.986-.322c-.109 0-.219-.108-.328-.108-.438-.107-.986-.215-1.533-.215h-1.205c-1.204.108-2.409.323-3.614.753-2.08.753-4.599 2.043-7.337 4.085-12.264 9.138-24.31 27.306-27.157 31.499a.51.51 0 000 .43c.219.215.438.107.438.107 17.411-4.945 29.02-9.998 36.904-14.298.438-.215.876-.322 1.314-.645l5.475-3.332c4.818-2.796 6.351-9.138 3.285-13.868zM74.103 10.632V9.236c0-.322-.11-.644-.22-.967 0-.214-.111-.537-.111-.751-.662-2.363-2.097-4.404-4.304-5.8-.11-.107-.221-.107-.331-.214L67.812.859c-.11-.107-.22-.107-.441-.107-.221-.108-.552-.215-.773-.322-1.545-.43-3.2-.537-4.635-.323-1.545.215-3.2.752-4.856 2.04-.11.108-.221.108-.331.216l-.552.537c-.883.751-1.545 1.718-2.097 2.792-1.104 1.933-2.097 4.403-2.76 7.625-3.31 14.82-.44 36.192.221 41.24.11.322.221.322.221.322.331.107.442-.215.442-.215 10.374-15.357 16.113-26.849 19.203-35.226.11-.214.11-.322.221-.43l.11-.429c.663-1.718 1.104-3.329 1.546-4.725l.22-.752c0-.107 0-.322.11-.43.111-.322.221-.644.221-.966v-.537c.11-.215.11-.43.221-.537z" fill="#9AA0A7"/></svg>