<svg width="99" height="56" viewBox="0 0 99 56" fill="none" xmlns="http://www.w3.org/2000/svg">
<g clip-path="url(#clip0)">
<path d="M24.2622 12.2138C24.2622 13.5131 24.4706 14.8124 24.8874 16.0078C25.3042 17.2032 25.9294 18.2946 26.7109 19.2302C27.4924 20.1657 28.4302 20.8933 29.5243 21.465C30.6184 22.0367 31.8167 22.2966 33.1713 22.2966C34.5259 22.2966 35.7763 21.9848 36.9225 21.4131C38.0166 20.8413 39.0065 20.0617 39.7359 19.1262C40.5174 18.1907 41.0905 17.0993 41.5073 15.9039C41.9241 14.7085 42.1325 13.4611 42.1325 12.2138C42.1325 10.9144 41.924 9.61508 41.4551 8.4197C40.9862 7.22431 40.4132 6.13286 39.5796 5.19734C38.7981 4.26182 37.8603 3.53419 36.7662 2.96249C35.6721 2.39078 34.4738 2.13091 33.1192 2.13091C31.7646 2.13091 30.5142 2.44275 29.368 3.01446C28.2739 3.58617 27.284 4.36577 26.5546 5.30129C25.7731 6.23681 25.2 7.32825 24.7832 8.52364C24.4706 9.771 24.2622 10.9664 24.2622 12.2138ZM33.2234 24.4275C31.5562 24.4275 29.9932 24.0637 28.5865 23.388C27.1798 22.7124 25.9815 21.7769 24.9916 20.6335C24.0017 19.49 23.2202 18.1907 22.6471 16.7354C22.074 15.2802 21.8135 13.773 21.8135 12.2138C21.8135 10.6026 22.1261 9.04338 22.6992 7.58812C23.2723 6.13286 24.1059 4.83353 25.0958 3.69011C26.0857 2.5467 27.3361 1.66315 28.7428 0.987495C30.1495 0.311841 31.6604 0 33.2755 0C34.9427 0 36.5057 0.363814 37.9124 1.09144C39.3191 1.81907 40.5174 2.75459 41.5073 3.89801C42.4972 5.04142 43.2786 6.34076 43.7996 7.79601C44.3727 9.25127 44.6332 10.7585 44.6332 12.2657C44.6332 13.8769 44.3206 15.4361 43.7475 16.8914C43.1744 18.3466 42.393 19.646 41.351 20.7894C40.3611 21.9328 39.1107 22.8163 37.7561 23.492C36.3494 24.1157 34.8385 24.4275 33.2234 24.4275Z" fill="#3C3C3B"/>
<path d="M49.8951 12.2138C49.8951 13.5131 50.1035 14.8124 50.5203 16.0078C50.9371 17.2032 51.5623 18.2946 52.3438 19.2302C53.1253 20.1657 54.0631 20.8933 55.1572 21.465C56.2513 22.0367 57.4496 22.2966 58.8042 22.2966C60.1588 22.2966 61.4092 21.9848 62.5554 21.4131C63.6495 20.8413 64.6394 20.0617 65.3688 19.1262C66.1503 18.1907 66.7234 17.0993 67.1402 15.9039C67.557 14.7085 67.7654 13.4611 67.7654 12.2138C67.7654 10.9144 67.557 9.61508 67.0881 8.4197C66.6192 7.22431 66.0461 6.13286 65.2125 5.19734C64.431 4.26182 63.4932 3.53419 62.3991 2.96249C61.305 2.39078 60.1067 2.13091 58.7521 2.13091C57.3975 2.13091 56.1471 2.44275 55.0009 3.01446C53.9068 3.58617 52.9169 4.36577 52.1875 5.30129C51.406 6.23681 50.8329 7.32825 50.4161 8.52364C50.1556 9.771 49.8951 10.9664 49.8951 12.2138ZM58.9084 24.4275C57.2412 24.4275 55.6782 24.0637 54.2715 23.388C52.8648 22.7124 51.6665 21.7769 50.6766 20.6335C49.6867 19.49 48.9052 18.1907 48.3321 16.7354C47.759 15.2802 47.4985 13.773 47.4985 12.2138C47.4985 10.6026 47.8111 9.04338 48.3842 7.58812C48.9573 6.13286 49.7909 4.83353 50.7808 3.69011C51.7707 2.5467 53.0211 1.66315 54.4278 0.987495C55.8345 0.311841 57.3454 0 58.9605 0C60.6277 0 62.1907 0.363814 63.5974 1.09144C65.0041 1.81907 66.2024 2.75459 67.1923 3.89801C68.1822 5.04142 68.9637 6.34076 69.4847 7.79601C70.0578 9.25127 70.3183 10.7585 70.3183 12.2657C70.3183 13.8769 70.0057 15.4361 69.4326 16.8914C68.8595 18.3466 68.078 19.646 67.036 20.7894C66.0461 21.9328 64.7957 22.8163 63.4411 23.492C62.0344 24.1157 60.5235 24.4275 58.9084 24.4275Z" fill="#3C3C3B"/>
<path d="M0.712891 22.5564L17.2286 2.18285H0.97339V0.0519409H19.9899V1.92298L3.68259 22.2966H19.9899V24.4275H0.712891V22.5564Z" fill="#3C3C3B"/>
<path d="M96.3164 24.4275V4.41771L87.4594 19.9058H86.0527L77.1957 4.41771V24.4275H74.7991V0.0519409H77.2999L86.73 16.7354L96.2642 0.0519409H98.713V24.4275H96.3164Z" fill="#3C3C3B"/>
<path d="M19.99 39.2399H21.4488V50.5181H19.99V39.2399ZM19.99 34.7182H21.4488V36.9011H19.99V34.7182Z" fill="#EC974E"/>
<path d="M34.1611 50.5182H32.7023V44.2294C32.7023 42.8781 32.4939 41.9426 32.1292 41.3189C31.7124 40.6952 31.1393 40.4353 30.3057 40.4353C29.8889 40.4353 29.42 40.5393 29.0032 40.6952C28.5864 40.8511 28.1697 41.059 27.805 41.3708C27.4403 41.6827 27.1277 41.9945 26.8151 42.4103C26.5025 42.8261 26.2941 43.2419 26.1899 43.7097V50.6221H24.679V39.2399H26.0336V41.7866C26.5025 40.9551 27.1798 40.2794 28.0134 39.8116C28.847 39.2919 29.7847 39.032 30.8267 39.032C31.4519 39.032 31.9729 39.136 32.3897 39.3959C32.8065 39.6038 33.1712 39.9676 33.4317 40.3834C33.6922 40.7991 33.9006 41.3189 34.0048 41.9426C34.109 42.5662 34.1611 43.2419 34.1611 43.9695V50.5182Z" fill="#EC974E"/>
<path d="M42.2887 49.4267C42.6534 49.4267 43.0181 49.3747 43.4349 49.2188C43.8517 49.0629 44.2164 48.855 44.5811 48.6471C44.9458 48.3872 45.2584 48.0754 45.5189 47.7635C45.7794 47.3997 45.9357 47.0359 45.9878 46.6721V43.1379C45.8315 42.7741 45.6231 42.4103 45.3626 42.0465C45.1021 41.7346 44.7895 41.4228 44.4248 41.1629C44.0601 40.903 43.6954 40.6951 43.2786 40.5392C42.8618 40.3833 42.4971 40.3313 42.0803 40.3313C41.4551 40.3313 40.9341 40.4353 40.4131 40.6951C39.9442 40.955 39.4753 41.3188 39.1627 41.7346C38.798 42.1504 38.5375 42.6701 38.3291 43.1899C38.1207 43.7616 38.0686 44.2813 38.0686 44.853C38.0686 45.4767 38.1728 46.0484 38.3812 46.5681C38.5896 47.1398 38.9022 47.6076 39.2669 48.0234C39.6316 48.4392 40.1005 48.751 40.6215 49.0109C41.1425 49.3227 41.6635 49.4267 42.2887 49.4267ZM41.924 50.726C41.1425 50.726 40.4131 50.5701 39.7358 50.2582C39.0585 49.9464 38.4854 49.5306 38.0165 48.9589C37.5476 48.4392 37.1829 47.8155 36.9224 47.0879C36.6619 46.4122 36.5056 45.6326 36.5056 44.905C36.5056 44.1254 36.6098 43.3458 36.8703 42.6701C37.1308 41.9425 37.4955 41.3188 37.9644 40.7991C38.4333 40.2794 38.9543 39.8636 39.5795 39.5517C40.2047 39.2399 40.882 39.084 41.6635 39.084C42.6013 39.084 43.4349 39.3438 44.2164 39.8116C44.9458 40.3313 45.5189 40.903 45.9357 41.6307V34.7182H47.3945V48.5951C47.3945 49.0109 47.5508 49.2188 47.9155 49.2188V50.5181C47.7071 50.5701 47.5508 50.5701 47.3945 50.5701C47.0298 50.5701 46.7693 50.4661 46.5088 50.2582C46.2483 50.0504 46.1441 49.7905 46.1441 49.4267V48.3352C45.6752 49.0629 45.1021 49.6346 44.3206 50.1023C43.5391 50.5181 42.7576 50.726 41.924 50.726Z" fill="#EC974E"/>
<path d="M54.3238 50.7261C53.0734 50.7261 52.1877 50.3103 51.5625 49.5307C50.9373 48.6991 50.6768 47.5037 50.6768 45.8925V39.2399H52.1356V45.5807C52.1356 48.1274 53.0213 49.4267 54.7406 49.4267C55.1574 49.4267 55.5742 49.3747 56.0431 49.2188C56.4599 49.0629 56.8246 48.855 57.1893 48.5951C57.554 48.3353 57.8666 48.0234 58.1271 47.6077C58.3876 47.2438 58.6481 46.8281 58.8044 46.3083V39.2399H60.2632V48.5951C60.2632 49.0109 60.4195 49.2188 60.7842 49.2188V50.5182C60.6279 50.5701 60.4716 50.5701 60.3674 50.5701H60.159C59.7943 50.5701 59.5338 50.4142 59.3254 50.2063C59.117 49.9984 59.0128 49.6866 59.0128 49.2708V47.9715C58.5439 48.855 57.8666 49.5307 57.033 49.9984C56.1473 50.4662 55.2616 50.7261 54.3238 50.7261Z" fill="#EC974E"/>
<path d="M67.4008 50.726C66.5151 50.726 65.6815 50.5701 64.8479 50.3103C64.0143 49.9984 63.2849 49.5826 62.6597 49.0629L63.337 48.0754C63.9622 48.5951 64.6395 48.9589 65.2647 49.2188C65.942 49.4787 66.6193 49.5826 67.4008 49.5826C68.2865 49.5826 69.0159 49.3747 69.589 49.0109C70.11 48.6471 70.4226 48.1274 70.4226 47.4517C70.4226 47.1399 70.3705 46.88 70.2142 46.6721C70.0579 46.4642 69.8495 46.2563 69.589 46.1004C69.3285 45.9445 68.9638 45.7886 68.547 45.6846C68.1302 45.5807 67.6092 45.4247 67.0882 45.3208C66.463 45.1649 65.8899 45.009 65.421 44.853C64.9521 44.6971 64.5353 44.4892 64.2227 44.3333C63.9101 44.1254 63.7017 43.8655 63.5454 43.6057C63.3891 43.3458 63.337 42.93 63.337 42.5142C63.337 41.9425 63.4412 41.4748 63.6496 41.007C63.858 40.5912 64.1706 40.2274 64.5353 39.9156C64.9 39.6557 65.3689 39.4478 65.8899 39.2919C66.4109 39.136 66.9319 39.084 67.505 39.084C68.3907 39.084 69.1722 39.2399 69.8495 39.4998C70.5789 39.7596 71.152 40.1754 71.5688 40.5912L70.8394 41.4748C70.4226 41.059 69.9016 40.6952 69.3285 40.4873C68.7033 40.2794 68.1302 40.1754 67.4529 40.1754C67.0882 40.1754 66.7235 40.2274 66.3588 40.2794C66.0462 40.3833 65.7336 40.4873 65.4731 40.6432C65.2126 40.7991 65.0042 41.059 64.9 41.3188C64.7958 41.5787 64.6916 41.8906 64.6916 42.2544C64.6916 42.5662 64.7437 42.8261 64.8479 42.982C64.9521 43.1899 65.1084 43.3458 65.3689 43.4498C65.5773 43.6057 65.8899 43.7096 66.2546 43.8136C66.6193 43.9175 67.0361 44.0215 67.5571 44.1254C68.2865 44.2813 68.9117 44.4892 69.4848 44.6451C70.0579 44.8011 70.4747 45.009 70.8394 45.2688C71.2041 45.4767 71.4646 45.7886 71.673 46.1004C71.8814 46.4122 71.9335 46.828 71.9335 47.2958C71.9335 48.3353 71.5167 49.1668 70.7352 49.7385C69.7974 50.4142 68.7033 50.726 67.4008 50.726Z" fill="#EC974E"/>
<path d="M79.5921 49.9464C79.4879 49.9984 79.3837 50.0504 79.2274 50.1023C79.0711 50.1543 78.8627 50.2583 78.6543 50.3102C78.4459 50.3622 78.1854 50.4661 77.9249 50.5181C77.6644 50.5701 77.3518 50.6221 77.0392 50.6221C76.7266 50.6221 76.414 50.5701 76.1535 50.5181C75.8409 50.4142 75.6325 50.3102 75.372 50.1023C75.1636 49.9464 75.0073 49.6865 74.851 49.4267C74.7468 49.1668 74.6426 48.855 74.6426 48.4912V40.4353H73.0796V39.2919H74.6426V35.4978H76.1014V39.2919H78.7064V40.4353H76.1014V48.0754C76.1535 48.4912 76.2577 48.803 76.5703 49.0109C76.8308 49.2188 77.1434 49.3227 77.5081 49.3227C77.9249 49.3227 78.2896 49.2708 78.6022 49.1148C78.9148 48.9589 79.1232 48.855 79.2274 48.803L79.5921 49.9464Z" fill="#EC974E"/>
<path d="M87.0426 40.5393C86.0527 40.5913 85.167 40.8511 84.4376 41.3709C83.7082 41.8906 83.1872 42.6182 82.8746 43.5018V50.5182H81.4158V39.24H82.8225V41.9426C83.2393 41.059 83.8124 40.3834 84.4897 39.9156C85.2191 39.4479 85.9485 39.188 86.7821 39.188C86.8863 39.188 86.9905 39.188 87.0426 39.188V40.5393Z" fill="#EC974E"/>
<path d="M89.6995 53.9484C89.8037 53.9484 89.9079 53.9484 90.0121 54.0004C90.1163 54.0524 90.2205 54.0004 90.3247 54.0004C90.5852 54.0004 90.7936 53.9484 90.9499 53.8964C91.1062 53.8445 91.2625 53.6885 91.4188 53.4287C91.5751 53.1688 91.7314 52.805 91.8877 52.3892C92.044 51.9214 92.3045 51.2978 92.6692 50.5182L87.7197 39.2399H89.2306L93.3986 49.1149L97.254 39.2399H98.6607L92.8255 53.7405C92.6692 54.1563 92.4087 54.5201 92.044 54.832C91.6793 55.1438 91.1583 55.2997 90.5331 55.2997C90.3768 55.2997 90.2726 55.2997 90.1163 55.2997C90.0121 55.2997 89.8037 55.2997 89.6474 55.2477V53.9484H89.6995Z" fill="#EC974E"/>
<path d="M29.3678 35.8097C28.5342 32.5873 27.6485 30.8202 27.0233 29.8847C26.8149 29.6249 26.5544 29.5209 26.2939 29.417C26.2939 29.417 26.2939 29.417 26.2418 29.417C26.1897 29.417 26.0855 29.365 26.0334 29.365H25.9813C25.9292 29.365 25.8771 29.365 25.7729 29.365H25.7208C25.6687 29.365 25.6166 29.365 25.5124 29.417C25.4603 29.417 25.4603 29.417 25.4082 29.4689C25.3561 29.4689 25.304 29.5209 25.304 29.5209C25.2519 29.5209 25.2519 29.5209 25.1998 29.5729C24.9914 29.7288 24.783 29.8847 24.6788 30.0926C24.6788 30.0926 24.6788 30.1446 24.6267 30.1446C24.6267 30.1966 24.5746 30.2485 24.5746 30.3005C24.4704 30.6643 24.5225 31.0281 24.7309 31.392V31.4439C24.8351 31.6518 24.9393 31.9117 25.1477 32.1716C26.2939 33.8347 28.6905 35.4459 29.2115 35.8617C29.2636 35.8617 29.2636 35.8617 29.2636 35.8617C29.3678 35.8617 29.3678 35.8097 29.3678 35.8097Z" fill="#3C3C3B"/>
<path d="M39.3711 32.7952C39.2148 32.5354 38.9543 32.3275 38.6938 32.2235C38.6417 32.2235 38.5896 32.1715 38.5375 32.1715H38.4854C38.4333 32.1715 38.3291 32.1715 38.277 32.1196C38.2249 32.1196 38.1728 32.1196 38.1207 32.1196C37.9644 32.1196 37.8081 32.1715 37.6518 32.2235C37.3913 32.3275 37.0787 32.4834 36.6619 32.7952C35.0468 33.9906 33.4838 36.4334 33.1191 37.0051C33.1191 37.057 33.1191 37.057 33.1191 37.057C33.1712 37.109 33.1712 37.057 33.1712 37.057C35.4636 36.3814 36.9745 35.7057 38.0165 35.186C38.0686 35.186 38.1207 35.134 38.1728 35.0821L38.9022 34.6663C39.5795 34.3025 39.7879 33.4709 39.3711 32.7952Z" fill="#3C3C3B"/>
<path d="M34.1611 30.3006C34.1611 30.2486 34.1611 30.1966 34.1611 30.0927C34.1611 30.0407 34.1611 29.9887 34.1611 29.9367C34.1611 29.8848 34.1611 29.8848 34.1611 29.8328C34.0569 29.521 33.9006 29.2611 33.588 29.0532C33.588 29.0532 33.5359 29.0532 33.5359 29.0012C33.4838 28.9493 33.4317 28.9493 33.3796 28.8973H33.3275C33.2754 28.8973 33.2754 28.8453 33.2233 28.8453C33.0149 28.7933 32.8065 28.7933 32.5981 28.7933C32.3897 28.7933 32.1813 28.8973 31.9729 29.0532C31.9729 29.0532 31.9729 29.0532 31.9208 29.1052L31.8687 29.1571C31.7645 29.2611 31.6603 29.365 31.6082 29.521C31.4519 29.7808 31.3477 30.0927 31.2435 30.5604C30.8267 32.5354 31.1914 35.394 31.2435 36.0696C31.2435 36.1216 31.2956 36.1216 31.2956 36.1216C31.3477 36.1216 31.3477 36.0696 31.3477 36.0696C32.7023 34.0427 33.4317 32.4834 33.8485 31.392C33.8485 31.392 33.8485 31.34 33.9006 31.34V31.2881C34.0048 31.0282 34.0569 30.8723 34.109 30.6644L34.1611 30.5604V30.5085C34.1611 30.4565 34.1611 30.4045 34.2132 30.4045V30.3525C34.1611 30.3525 34.1611 30.3006 34.1611 30.3006Z" fill="#3C3C3B"/>
</g>
<defs>
<clipPath id="clip0">
<rect width="98" height="55.2997" fill="white" transform="translate(0.712891)"/>
</clipPath>
</defs>
</svg>
