<svg width="221" height="33" viewBox="0 0 221 33" fill="none" xmlns="http://www.w3.org/2000/svg">
<path d="M26.4527 13.5845C26.4527 15.0422 26.6957 16.4519 27.1816 17.7976C27.6676 19.1432 28.3641 20.3447 29.2551 21.3859C30.146 22.4272 31.2151 23.2602 32.4462 23.885C33.6773 24.4937 35.0542 24.8141 36.5607 24.8141C38.0996 24.8141 39.4927 24.4937 40.7562 23.8369C42.0035 23.1801 43.0726 22.3311 43.9474 21.2738C44.8221 20.2165 45.4862 19.015 45.9722 17.6854C46.442 16.3558 46.685 14.9942 46.685 13.6005C46.685 12.1427 46.442 10.733 45.9398 9.38738C45.4376 8.04175 44.7411 6.85631 43.8502 5.81505C42.9592 4.78981 41.8901 3.9568 40.659 3.34806C39.4279 2.73932 38.0672 2.41893 36.5769 2.41893C35.038 2.41893 33.6449 2.73932 32.3814 3.3801C31.1179 4.02087 30.065 4.8699 29.1903 5.92718C28.3155 6.98447 27.6514 8.18592 27.1654 9.51553C26.6795 10.8451 26.4527 12.2068 26.4527 13.5845ZM36.5607 27.1849C34.6655 27.1849 32.9322 26.8005 31.3447 26.0316C29.7734 25.2626 28.4127 24.2374 27.295 22.9718C26.1611 21.7063 25.3026 20.2485 24.687 18.6146C24.0714 16.9806 23.7637 15.2985 23.7637 13.6005C23.7637 11.8063 24.0876 10.1083 24.7518 8.45825C25.3997 6.82427 26.3069 5.38252 27.457 4.11699C28.6071 2.85146 29.9678 1.85825 31.5391 1.12136C33.0942 0.384466 34.795 0 36.6093 0C38.5046 0 40.2378 0.400485 41.8253 1.18544C43.3966 1.98641 44.7411 3.01165 45.8588 4.2932C46.9765 5.57476 47.8351 7.03252 48.4506 8.65049C49.0662 10.2684 49.3739 11.9345 49.3739 13.6165C49.3739 15.4107 49.05 17.1087 48.3858 18.7587C47.7379 20.3927 46.8307 21.8345 45.6968 23.084C44.5629 24.3335 43.2022 25.3267 41.6471 26.0636C40.0758 26.8165 38.375 27.1849 36.5607 27.1849Z" fill="#3C3C3B"/>
<path d="M55.3189 13.5845C55.3189 15.0422 55.5619 16.4519 56.0478 17.7976C56.5338 19.1432 57.2303 20.3447 58.1213 21.3859C59.0122 22.4272 60.0813 23.2602 61.3124 23.885C62.5435 24.4937 63.9204 24.8141 65.4269 24.8141C66.9658 24.8141 68.3589 24.4937 69.6224 23.8369C70.8859 23.1801 71.9388 22.3311 72.8136 21.2738C73.6883 20.2165 74.3525 19.015 74.8384 17.6854C75.3082 16.3558 75.5512 14.9942 75.5512 13.6005C75.5512 12.1427 75.3082 10.733 74.806 9.38738C74.3039 8.04175 73.6073 6.85631 72.7164 5.81505C71.8254 4.78981 70.7563 3.9568 69.5252 3.34806C68.2941 2.73932 66.9334 2.41893 65.4431 2.41893C63.9042 2.41893 62.5111 2.73932 61.2476 3.3801C59.9841 4.02087 58.9312 4.8699 58.0565 5.92718C57.1817 6.98447 56.5176 8.18592 56.0316 9.51553C55.5619 10.8451 55.3189 12.2068 55.3189 13.5845ZM65.4269 27.1849C63.5317 27.1849 61.7984 26.8005 60.2109 26.0316C58.6396 25.2626 57.2789 24.2374 56.1612 22.9718C55.0273 21.7063 54.1688 20.2485 53.5532 18.6146C52.9377 16.9806 52.6299 15.2985 52.6299 13.6005C52.6299 11.8063 52.9539 10.1083 53.618 8.45825C54.266 6.82427 55.1731 5.38252 56.3232 4.11699C57.4733 2.85146 58.834 1.85825 60.4053 1.12136C61.9604 0.384466 63.6613 0 65.4755 0C67.3708 0 69.104 0.400485 70.6915 1.18544C72.2628 1.98641 73.6073 3.01165 74.725 4.2932C75.8427 5.57476 76.7013 7.03252 77.3168 8.65049C77.9324 10.2684 78.2402 11.9345 78.2402 13.6165C78.2402 15.4107 77.9162 17.1087 77.252 18.7587C76.6041 20.3927 75.6969 21.8345 74.563 23.084C73.4291 24.3335 72.0684 25.3267 70.5133 26.0636C68.9421 26.8165 67.2574 27.1849 65.4269 27.1849Z" fill="#3C3C3B"/>
<path d="M0 25.0704L18.5638 2.37087H0.307777V0H21.6902V2.09854L3.33695 24.8141H21.6416V27.1849H0V25.0704Z" fill="#3C3C3B"/>
<path d="M105.681 26.9927V4.82184L95.7186 21.9786H94.1473L84.1851 4.82184V26.9927H81.4961V0H84.2661L94.9249 18.4704L105.648 0H108.37V26.9927H105.681Z" fill="#3C3C3B"/>
<path d="M117.312 12.0306H119.255V26.7204H117.312V12.0306ZM117.312 6.13545H119.255V8.95487H117.312V6.13545Z" fill="#EC974E"/>
<path d="M136.005 26.7204H134.061V18.5185C134.061 16.7723 133.802 15.5068 133.284 14.7058C132.765 13.9209 131.955 13.5204 130.87 13.5204C130.303 13.5204 129.736 13.6165 129.153 13.8248C128.586 14.033 128.051 14.3214 127.565 14.7058C127.079 15.0743 126.642 15.5228 126.269 16.0515C125.897 16.5641 125.622 17.1248 125.443 17.7335V26.7204H123.5V12.0306H125.265V15.3626C125.881 14.2893 126.739 13.4243 127.873 12.7675C129.007 12.1107 130.238 11.7743 131.567 11.7743C132.376 11.7743 133.073 11.9185 133.64 12.2228C134.207 12.5272 134.66 12.9437 135.001 13.4884C135.341 14.033 135.584 14.7058 135.746 15.4908C135.892 16.2757 135.973 17.1568 135.973 18.118V26.7204H136.005Z" fill="#EC974E"/>
<path d="M146.68 25.3107C147.15 25.3107 147.668 25.2146 148.203 25.0223C148.737 24.8301 149.256 24.5738 149.725 24.2534C150.195 23.917 150.6 23.5325 150.94 23.1C151.28 22.6514 151.475 22.1869 151.556 21.6743V17.1408C151.361 16.6281 151.086 16.1636 150.73 15.715C150.373 15.2665 149.952 14.882 149.482 14.5456C149.013 14.2092 148.51 13.9369 147.992 13.7607C147.458 13.5684 146.939 13.4723 146.421 13.4723C145.627 13.4723 144.898 13.6485 144.25 13.9849C143.602 14.3213 143.051 14.7699 142.582 15.3306C142.112 15.8913 141.756 16.516 141.513 17.2369C141.27 17.9578 141.14 18.6786 141.14 19.4315C141.14 20.2165 141.286 20.9694 141.561 21.6903C141.853 22.4112 142.242 23.0359 142.727 23.5646C143.213 24.0932 143.813 24.5257 144.477 24.8461C145.174 25.1505 145.886 25.3107 146.68 25.3107ZM146.243 26.9927C145.222 26.9927 144.266 26.7845 143.392 26.3519C142.517 25.9354 141.772 25.3747 141.14 24.6699C140.508 23.9811 140.022 23.1641 139.666 22.267C139.31 21.3539 139.131 20.4087 139.131 19.3995C139.131 18.3582 139.31 17.3811 139.65 16.4519C139.99 15.5228 140.46 14.7058 141.059 14.017C141.658 13.3281 142.371 12.7675 143.197 12.367C144.023 11.9665 144.931 11.7582 145.919 11.7582C147.166 11.7582 148.284 12.0786 149.256 12.7354C150.228 13.3762 150.989 14.1612 151.54 15.0903V6.11941H153.483V24.2213C153.483 24.75 153.71 25.0063 154.164 25.0063V26.7044C153.872 26.7684 153.645 26.7845 153.483 26.7845C153.03 26.7845 152.625 26.6403 152.285 26.3519C151.945 26.0636 151.766 25.7112 151.766 25.2946V23.8529C151.183 24.8141 150.373 25.567 149.369 26.1437C148.381 26.7204 147.328 26.9927 146.243 26.9927Z" fill="#EC974E"/>
<path d="M162.522 26.9927C160.903 26.9927 159.704 26.4641 158.91 25.4068C158.116 24.3495 157.728 22.7636 157.728 20.6491V12.0306H159.671V20.3126C159.671 23.6447 160.822 25.3107 163.122 25.3107C163.689 25.3107 164.256 25.2146 164.806 25.0224C165.357 24.8301 165.859 24.5578 166.329 24.2054C166.799 23.8529 167.22 23.4204 167.576 22.9398C167.949 22.4592 168.241 21.8986 168.467 21.2738V12.0306H170.411V24.2374C170.411 24.766 170.638 25.0224 171.092 25.0224V26.7204C170.865 26.7525 170.67 26.7845 170.541 26.7845H170.249C169.796 26.7685 169.423 26.6083 169.132 26.3039C168.84 25.9995 168.71 25.5991 168.71 25.0864V23.3884C168.062 24.5418 167.188 25.4228 166.07 26.0476C164.968 26.6884 163.786 26.9927 162.522 26.9927Z" fill="#EC974E"/>
<path d="M179.742 26.9927C178.575 26.9927 177.458 26.8005 176.356 26.432C175.255 26.0636 174.299 25.5189 173.505 24.7981L174.396 23.5005C175.238 24.1733 176.081 24.6859 176.955 25.0223C177.814 25.3587 178.754 25.535 179.742 25.535C180.94 25.535 181.896 25.2947 182.609 24.8141C183.322 24.3335 183.678 23.6607 183.678 22.7636C183.678 22.3471 183.581 22.0107 183.386 21.7383C183.192 21.466 182.917 21.2257 182.544 21.0175C182.171 20.8092 181.702 20.633 181.151 20.4728C180.584 20.3126 179.936 20.1524 179.191 19.9762C178.332 19.768 177.587 19.5597 176.972 19.3515C176.34 19.1432 175.822 18.9029 175.417 18.6466C175.012 18.3903 174.704 18.0539 174.509 17.6694C174.315 17.2849 174.218 16.8044 174.218 16.2116C174.218 15.4747 174.364 14.834 174.655 14.2733C174.947 13.7126 175.352 13.248 175.854 12.8796C176.356 12.5112 176.939 12.2388 177.62 12.0466C178.3 11.8544 179.013 11.7582 179.774 11.7582C180.908 11.7582 181.945 11.9345 182.884 12.3029C183.808 12.6713 184.569 13.1519 185.136 13.7607L184.196 14.882C183.646 14.3213 182.981 13.8888 182.188 13.6165C181.394 13.3281 180.584 13.2 179.725 13.2C179.207 13.2 178.737 13.248 178.3 13.3602C177.863 13.4563 177.474 13.6325 177.15 13.8568C176.81 14.0811 176.551 14.3694 176.372 14.7218C176.178 15.0743 176.081 15.4747 176.081 15.9553C176.081 16.3558 176.146 16.6762 176.275 16.9165C176.405 17.1568 176.631 17.365 176.923 17.5573C177.231 17.7335 177.62 17.8937 178.073 18.0379C178.543 18.182 179.11 18.3262 179.774 18.4704C180.73 18.6947 181.556 18.9189 182.285 19.1432C183.014 19.3675 183.613 19.6398 184.099 19.9282C184.585 20.2325 184.941 20.601 185.201 21.0335C185.444 21.466 185.573 21.9947 185.573 22.6194C185.573 23.965 185.055 25.0384 184.002 25.8393C182.917 26.6083 181.507 26.9927 179.742 26.9927Z" fill="#EC974E"/>
<path d="M195.827 26.0156C195.714 26.0797 195.552 26.1437 195.325 26.2399C195.114 26.336 194.855 26.4321 194.563 26.5282C194.272 26.6243 193.948 26.7044 193.592 26.7845C193.235 26.8646 192.846 26.8966 192.458 26.8966C192.036 26.8966 191.648 26.8326 191.259 26.7204C190.886 26.6083 190.546 26.4321 190.255 26.1918C189.963 25.9515 189.736 25.6632 189.574 25.3107C189.396 24.9583 189.315 24.5418 189.315 24.0772V13.5525H187.258V12.0306H189.315V7.0646H191.259V12.0306H194.677V13.5525H191.259V23.5326C191.291 24.0772 191.486 24.4777 191.842 24.734C192.198 24.9903 192.603 25.1185 193.057 25.1185C193.608 25.1185 194.094 25.0224 194.515 24.8462C194.936 24.6699 195.195 24.5418 195.309 24.4617L195.827 26.0156Z" fill="#EC974E"/>
<path d="M205.66 13.7126C204.348 13.7447 203.214 14.1131 202.242 14.7859C201.27 15.4588 200.59 16.3879 200.185 17.5733V26.7044H198.241V12.0306H200.071V15.5549C200.622 14.4335 201.367 13.5364 202.29 12.9117C203.214 12.2709 204.218 11.9505 205.287 11.9505C205.433 11.9505 205.563 11.9665 205.66 11.9825V13.7126Z" fill="#EC974E"/>
<path d="M209.11 31.2219C209.256 31.2379 209.402 31.2539 209.547 31.2699C209.693 31.2859 209.823 31.2859 209.969 31.2859C210.309 31.2859 210.584 31.2379 210.778 31.1418C210.973 31.0456 211.167 30.8374 211.362 30.517C211.556 30.1966 211.767 29.7321 212.01 29.1393C212.253 28.5306 212.577 27.7296 213.014 26.7204L206.534 12.0306H208.527L214.034 24.9422L219.137 12.0306H220.984L213.289 30.9816C213.079 31.5262 212.739 32.0068 212.253 32.4073C211.767 32.8078 211.102 33.016 210.276 33.016C210.082 33.016 209.904 33.016 209.742 33C209.564 32.984 209.369 32.968 209.11 32.9359V31.2219Z" fill="#EC974E"/>
<path d="M129.752 8.58643C128.813 4.95002 127.808 2.97963 127.096 1.93837C126.885 1.68206 126.593 1.50585 126.286 1.44177C126.269 1.44177 126.27 1.44177 126.253 1.44177C126.172 1.42575 126.091 1.40973 126.01 1.40973C125.978 1.40973 125.946 1.40973 125.929 1.40973C125.865 1.40973 125.784 1.40973 125.719 1.40973C125.686 1.40973 125.67 1.42575 125.638 1.42575C125.573 1.44177 125.492 1.45779 125.427 1.47381C125.395 1.48983 125.362 1.48983 125.33 1.50585C125.281 1.52186 125.233 1.53788 125.184 1.56992C125.152 1.58594 125.119 1.60196 125.087 1.61798C124.828 1.76216 124.633 1.98643 124.504 2.22672C124.504 2.22672 124.504 2.24274 124.488 2.24274C124.471 2.27478 124.455 2.2908 124.455 2.32284C124.423 2.38691 124.407 2.43497 124.39 2.49905C124.277 2.88352 124.309 3.31604 124.536 3.70051L124.552 3.73254C124.666 3.97284 124.812 4.24517 125.022 4.54953C126.334 6.39177 129.007 8.234 129.639 8.68254C129.671 8.69856 129.704 8.68254 129.704 8.68254C129.768 8.63449 129.752 8.58643 129.752 8.58643Z" fill="#3C3C3B"/>
<path d="M141.075 5.23835C140.881 4.93398 140.605 4.74175 140.298 4.62961C140.249 4.61359 140.2 4.59757 140.152 4.58155C140.136 4.58155 140.119 4.56553 140.103 4.56553C140.038 4.54951 139.957 4.53349 139.876 4.53349C139.828 4.53349 139.763 4.53349 139.715 4.53349H139.698C139.52 4.54951 139.342 4.58155 139.164 4.64563C138.856 4.75777 138.483 4.95 138.078 5.25437C136.264 6.61602 134.482 9.3233 134.061 9.94806C134.045 9.9801 134.061 10.0121 134.061 10.0121C134.094 10.0442 134.126 10.0282 134.126 10.0282C136.702 9.29127 138.419 8.53835 139.585 7.89757C139.65 7.86554 139.715 7.84952 139.779 7.80146L140.589 7.30486C141.302 6.88835 141.529 5.9432 141.075 5.23835Z" fill="#3C3C3B"/>
<path d="M135.179 2.41891C135.179 2.35484 135.179 2.27474 135.179 2.21066C135.179 2.1626 135.163 2.11455 135.147 2.06649C135.147 2.03445 135.13 1.98639 135.13 1.95435C135.033 1.60192 134.823 1.29756 134.499 1.0893C134.482 1.07328 134.466 1.07328 134.45 1.05726C134.385 1.02523 134.32 0.993187 134.256 0.961148C134.239 0.945128 134.223 0.945128 134.191 0.945128C134.158 0.929109 134.11 0.91309 134.077 0.89707C133.851 0.832993 133.608 0.816973 133.397 0.849012C133.17 0.881051 132.927 0.961148 132.684 1.15338C132.668 1.1694 132.652 1.1694 132.636 1.18542C132.603 1.21746 132.587 1.23348 132.555 1.26552C132.425 1.37765 132.328 1.52183 132.247 1.68202C132.085 1.97037 131.939 2.33882 131.842 2.8194C131.356 5.03008 131.777 8.21794 131.874 8.97086C131.891 9.01891 131.907 9.01891 131.907 9.01891C131.955 9.03493 131.972 8.98688 131.972 8.98688C133.494 6.6961 134.337 4.98202 134.79 3.73251C134.806 3.70047 134.806 3.68445 134.823 3.66843L134.839 3.60435C134.936 3.34804 135.001 3.10775 135.066 2.8995L135.098 2.78736C135.098 2.77134 135.098 2.7393 135.114 2.72328C135.13 2.67523 135.147 2.62717 135.147 2.57911C135.147 2.54707 135.147 2.53105 135.147 2.49901C135.163 2.46697 135.163 2.43493 135.179 2.41891Z" fill="#3C3C3B"/>
</svg>
