<svg width="105" height="24" viewBox="0 0 105 24" fill="none" xmlns="http://www.w3.org/2000/svg">
<path d="M74.7691 21.6282C75.0072 21.6282 75.2716 21.7106 75.4303 21.9028C75.5626 22.0676 75.6155 22.2873 75.6155 22.507C75.6155 22.8366 75.4832 23.1662 75.2187 23.4134C74.9807 23.6056 74.7162 23.688 74.4782 23.688C74.2137 23.688 73.9757 23.6056 73.8434 23.4134C73.7112 23.2486 73.6318 23.0289 73.6318 22.8092C73.6318 22.4796 73.7905 22.15 74.0286 21.9028C74.2666 21.7106 74.5046 21.6282 74.7691 21.6282Z" fill="#747373"/>
<path d="M88.3112 12.8665L84.1059 23.5777H82.7835L81.5404 14.9263L77.9435 23.5777H76.5946L75.3251 12.8939H76.9913L77.7583 21.6003H77.7848L81.4082 12.8665H82.5719L83.9472 21.6003L87.1475 12.8665H88.3112Z" fill="#747373"/>
<path d="M94.8444 22.0949C94.8444 22.0949 93.8394 23.7977 91.3532 23.7977C89.0258 23.7977 87.3066 22.3695 87.3066 19.4857C87.3066 15.3935 89.3961 12.7019 92.4641 12.7019C94.4477 12.7019 95.585 13.9927 95.585 15.5308C95.585 18.5519 92.0673 18.7716 89.8192 18.7716H88.8935C88.8671 19.0737 88.8671 19.3758 88.8671 19.678C88.8671 21.9026 90.0308 22.8639 91.6177 22.8639C93.4427 22.8639 94.3155 21.6005 94.3155 21.6005L94.8444 22.0949ZM88.9729 17.9202H89.8457C91.7235 17.9202 94.2361 17.7005 94.2361 15.3935C94.2361 14.3773 93.5485 13.5808 92.2789 13.5808C90.5069 13.5808 89.3167 15.2012 88.9729 17.9202Z" fill="#747373"/>
<path d="M97.9382 7.56604L99.4458 7.48364L98.5465 14.1301H98.5994C98.5994 14.1301 99.4193 12.647 101.535 12.647C103.625 12.647 105 14.24 105 16.9315C105 20.6942 103.201 23.7703 99.8425 23.7703C98.1762 23.7703 97.4621 22.9463 97.277 22.7266L96.8803 23.5505H95.7959L97.9382 7.56604ZM98.3878 15.1738L97.515 21.7928C97.5944 21.9301 98.1234 22.7266 99.578 22.7266C102.144 22.7266 103.413 20.4195 103.413 16.7393C103.413 14.7069 102.514 13.6907 100.953 13.6907C99.2342 13.6907 98.4143 15.2012 98.4143 15.2012L98.3878 15.1738Z" fill="#747373"/>
<path d="M6.32129 12.8939H9.65378L10.6324 20.5017H10.7117L14.0442 12.8665H15.8691L10.7646 23.5777H8.46361L6.32129 12.8939Z" fill="#747373"/>
<path d="M17.4293 23.6054H14.7051L16.1597 12.8941H18.9104L17.4293 23.6054ZM18.1698 8.28003C18.5665 8.28003 18.9368 8.41735 19.1749 8.692C19.3864 8.96665 19.4922 9.29623 19.4922 9.65327C19.4922 10.1751 19.2542 10.7519 18.8575 11.1638C18.5136 11.4385 18.1169 11.5758 17.7202 11.5758C17.3235 11.5758 16.9532 11.4385 16.7152 11.1364C16.4771 10.8892 16.3978 10.5321 16.3978 10.1751C16.3978 9.65327 16.6358 9.10397 17.059 8.71947C17.3764 8.38989 17.7995 8.28003 18.1698 8.28003Z" fill="#747373"/>
<path d="M25.496 14.5419H23.2215L22.5074 19.8426C22.428 20.3919 22.4016 20.8588 22.4016 21.1884C22.4016 22.0673 22.6396 22.3145 23.1686 22.3145C23.8298 22.3145 24.253 22.1222 24.253 22.1222L24.2265 23.3307C24.2265 23.3307 23.6447 23.8525 22.0842 23.8525C20.4444 23.8525 19.5981 23.2208 19.5981 21.518C19.5981 21.2433 19.6245 20.9138 19.651 20.5842L20.4444 14.5694H19.4658L19.651 13.2785L20.8676 13.0039L22.1636 9.62573H23.8562L23.4331 12.9215H25.7076L25.496 14.5419Z" fill="#747373"/>
<path d="M33.8804 23.6055H31.7645L31.4471 22.6717H31.4207C31.4207 22.6717 30.8124 23.8527 28.723 23.8527C26.5806 23.8253 25.126 22.1499 25.126 19.4309C25.126 15.5858 27.2947 12.6746 30.4421 12.6746C32.3464 12.6746 32.7431 13.5534 32.7431 13.5534H32.8224L33.325 12.9217H35.335L33.8804 23.6055ZM31.4471 21.1886L32.2935 15.1189C32.2406 15.0365 31.9761 14.2675 30.8388 14.2675C29.1461 14.2675 28.0353 16.0253 28.0353 19.8429C28.0353 21.4633 28.6436 22.1499 29.6486 22.1499C30.7066 22.1499 31.3149 21.3809 31.4471 21.1886Z" fill="#747373"/>
<path d="M36.6042 12.8943H38.7994L39.0374 13.8555H39.0903C39.0903 13.8555 40.1747 12.6746 41.8674 12.6746C43.0311 12.6746 43.7717 13.0316 44.0626 13.883C44.1684 13.7732 45.1999 12.6746 47.0777 12.6746C48.7175 12.6746 49.511 13.3886 49.511 15.0915C49.511 15.3936 49.4581 15.7506 49.4316 16.1077L48.4266 23.5781H45.6759L46.6545 16.3274C46.7074 15.9978 46.7074 15.7506 46.7074 15.5034C46.7074 14.5971 46.3636 14.4048 45.8082 14.4048C44.9883 14.4048 44.38 15.1189 44.2213 15.3386L44.1684 16.0802L43.1633 23.6055H40.4127L41.3913 16.3548C41.4442 16.0253 41.4442 15.7506 41.4442 15.5309C41.4442 14.652 41.1268 14.4598 40.5714 14.4598C39.7515 14.4598 39.1167 15.0915 39.011 15.2288L37.8737 23.633H35.123L36.6042 12.8943Z" fill="#747373"/>
<path d="M52.3678 23.6054H49.6172L51.0718 12.8941H53.8225L52.3678 23.6054ZM53.1084 8.28003C53.5051 8.28003 53.8754 8.41735 54.1134 8.692C54.325 8.96665 54.4308 9.29623 54.4308 9.65327C54.4308 10.1751 54.1928 10.7519 53.796 11.1638C53.4522 11.4385 53.0555 11.5758 52.6587 11.5758C52.262 11.5758 51.8917 11.4385 51.6537 11.1364C51.4157 10.8892 51.3363 10.5321 51.3363 10.1751C51.3363 9.65327 51.5744 9.10397 51.9975 8.71947C52.2885 8.38989 52.7116 8.28003 53.1084 8.28003Z" fill="#747373"/>
<path d="M55.1179 12.8943H57.3131L57.5512 13.7457H57.6041C57.6041 13.7457 58.4769 12.6746 60.5663 12.6746C62.4177 12.6746 63.3962 13.526 63.3962 15.4485C63.3962 15.7232 63.3698 16.0253 63.3434 16.3548L62.3648 23.6055H59.6141C59.6141 23.6055 60.4605 17.2337 60.5663 16.5746C60.6192 16.2724 60.6192 16.0253 60.6192 15.7781C60.6192 14.7344 60.196 14.4598 59.3496 14.4598C58.2917 14.4598 57.5512 15.1739 57.4983 15.2288L56.361 23.6055H53.6104L55.1179 12.8943Z" fill="#747373"/>
<path d="M72.3355 23.6055H70.2197L69.9023 22.6717H69.8758C69.8758 22.6717 69.2675 23.8527 67.1781 23.8527C65.0093 23.8527 63.5547 22.1774 63.5547 19.4309C63.5547 15.5858 65.7235 12.6746 68.8708 12.6746C70.7751 12.6746 71.1718 13.5534 71.1718 13.5534H71.2512L71.7537 12.9217H73.7638L72.3355 23.6055ZM69.8758 21.1886L70.7222 15.1189C70.6693 15.0365 70.4048 14.2675 69.2675 14.2675C67.5748 14.2675 66.464 16.0253 66.464 19.8429C66.464 21.4633 67.0723 22.1499 68.0774 22.1499C69.1617 22.1499 69.7436 21.3809 69.8758 21.1886Z" fill="#747373"/>
<path d="M22.5339 8.58222C22.5074 8.25265 22.481 7.95053 22.4016 7.64842C22.4016 7.62095 22.3223 7.62095 22.19 7.62095C22.5339 7.23645 22.9041 6.90687 23.3009 6.60476C21.5288 3.08927 18.0112 0.727295 13.9382 0.727295C8.48979 0.727295 3.99357 4.98434 3.38525 10.4498C3.99357 10.0928 4.62833 9.81814 5.34243 9.65335V11.8505C5.34243 11.8231 5.34243 11.7956 5.34243 11.7681C5.34243 6.82448 9.20389 2.84208 13.9382 2.84208C17.6145 2.84208 20.7354 5.23152 21.9785 8.58222C22.3487 8.58222 22.9041 8.58222 22.957 8.58222C23.248 8.58222 23.5654 8.58222 23.8563 8.58222C23.8298 8.58222 23.9885 8.58222 24.1208 8.58222C23.7769 8.55476 23.0628 8.55476 22.5339 8.58222Z" fill="#747373"/>
<path d="M3.38539 10.4501C1.34887 11.686 0 13.9656 0 16.6022C0 20.5297 3.06801 23.7156 6.85013 23.7156C7.03526 23.7156 7.2204 23.7156 7.37909 23.6881C7.3262 23.4409 7.08816 22.2325 6.95592 21.5733C6.90302 21.5733 6.85013 21.5733 6.79723 21.5733C4.15239 21.5733 2.01008 19.3487 2.01008 16.6022C2.01008 14.3776 3.41184 12.51 5.31612 11.8783V9.68109C4.62846 9.81842 3.9937 10.0931 3.38539 10.4501Z" fill="#747373"/>
<path d="M27.771 5.06714C26.1047 5.06714 24.5707 5.61643 23.3276 6.5777C22.9309 6.87981 22.5606 7.23686 22.2168 7.5939C22.3226 7.5939 22.4019 7.5939 22.4284 7.62136C22.5077 7.92348 22.5342 8.25305 22.5606 8.55517C23.0896 8.55517 23.8037 8.55517 24.1475 8.55517H24.174C25.1526 7.67629 26.4221 7.15446 27.7974 7.15446C30.5216 7.15446 32.7697 9.15939 33.2722 11.8235C33.6954 11.8235 34.7798 11.796 35.3087 11.8235C34.7798 8.00587 31.606 5.06714 27.771 5.06714Z" fill="#747373"/>
</svg>
