<svg width="18" height="28" viewBox="0 0 18 28" fill="none" xmlns="http://www.w3.org/2000/svg">
<path d="M13.8578 0H3.83481C1.93134 0 0.384766 1.54657 0.384766 3.47979V23.7042C0.384766 25.6077 1.93134 27.184 3.83481 27.184H13.8578C15.7613 27.184 17.3078 25.6374 17.3078 23.7042V3.47979C17.3078 1.54657 15.7613 0 13.8578 0ZM16.0289 22.812V23.7042C16.0289 24.8939 15.0475 25.8754 13.8578 25.8754H3.83481C2.64514 25.8754 1.66366 24.8939 1.66366 23.7042V22.812H16.0289ZM16.0289 5.6212V21.5033H1.6934V5.6212H16.0289ZM16.0289 3.47979V4.3423H1.6934V3.47979C1.6934 2.29012 2.67488 1.30864 3.86455 1.30864H13.8875C15.0475 1.30864 16.0289 2.26038 16.0289 3.47979Z" fill="#EC974E"/>
<path d="M8.86113 24.983C9.30726 24.983 9.66416 24.6261 9.66416 24.18C9.66416 23.7339 9.30726 23.377 8.86113 23.377C8.41501 23.377 8.05811 23.7339 8.05811 24.18C8.05811 24.6261 8.41501 24.983 8.86113 24.983Z" fill="#EC974E"/>
</svg>
