<svg width="13" height="21" viewBox="0 0 13 21" fill="none" xmlns="http://www.w3.org/2000/svg">
<path fill-rule="evenodd" clip-rule="evenodd" d="M1.70697 9.99988L0.999864 10.707L9.99986 19.707L10.707 18.9999L2.41408 10.707L11.4141 1.70699L10.707 0.999878L1.70697 9.99988Z" fill="#EC974E"/>
<path d="M0.999864 10.707L0.64631 10.3534L0.292757 10.707L0.64631 11.0605L0.999864 10.707ZM1.70697 9.99988L2.06052 10.3534L1.70697 9.99988ZM9.99986 19.707L9.64631 20.0605L9.99986 20.4141L10.3534 20.0605L9.99986 19.707ZM10.707 18.9999L11.0605 19.3534L11.4141 18.9999L11.0605 18.6463L10.707 18.9999ZM2.41408 10.707L2.06052 10.3534L1.70697 10.707L2.06052 11.0605L2.41408 10.707ZM11.4141 1.70699L11.7676 2.06054L12.1212 1.70699L11.7676 1.35343L11.4141 1.70699ZM10.707 0.999878L11.0605 0.646324L10.707 0.29277L10.3534 0.646324L10.707 0.999878ZM1.35342 11.0605L2.06052 10.3534L1.35342 9.64632L0.64631 10.3534L1.35342 11.0605ZM10.3534 19.3534L1.35342 10.3534L0.64631 11.0605L9.64631 20.0605L10.3534 19.3534ZM10.3534 18.6463L9.64631 19.3534L10.3534 20.0605L11.0605 19.3534L10.3534 18.6463ZM2.06052 11.0605L10.3534 19.3534L11.0605 18.6463L2.76763 10.3534L2.06052 11.0605ZM11.0605 1.35343L2.06052 10.3534L2.76763 11.0605L11.7676 2.06054L11.0605 1.35343ZM10.3534 1.35343L11.0605 2.06054L11.7676 1.35343L11.0605 0.646324L10.3534 1.35343ZM2.06052 10.3534L11.0605 1.35343L10.3534 0.646324L1.35342 9.64632L2.06052 10.3534Z" fill="#EC974E"/>
</svg>
