<svg width="13" height="13" viewBox="0 0 13 13" fill="none" xmlns="http://www.w3.org/2000/svg">
<path d="M6.5 13C4.77611 13 3.12289 12.3152 1.9038 11.0962C0.68484 9.87727 0 8.22401 0 6.50005C0 4.77617 0.684814 3.12297 1.9038 1.90389C3.12286 0.684835 4.77629 0 6.5 0C8.22371 0 9.87711 0.684808 11.0962 1.90389C12.3152 3.12284 13 4.77609 13 6.50005C13 8.22401 12.3152 9.8774 11.0962 11.0962C9.87714 12.3152 8.22371 13 6.5 13ZM6.5 11.1429C6.74624 11.1429 6.98244 11.045 7.15664 10.8709C7.33075 10.6968 7.42858 10.4606 7.42858 10.2143C7.42858 9.96805 7.33075 9.73185 7.15664 9.55776C6.98243 9.38355 6.74623 9.28572 6.5 9.28572C6.25377 9.28572 6.01756 9.38355 5.84336 9.55776C5.66925 9.73187 5.57142 9.96805 5.57142 10.2143C5.57142 10.4606 5.66925 10.6968 5.84336 10.8709C6.01757 11.045 6.25377 11.1429 6.5 11.1429ZM6.5 8.35714C7.01446 8.35714 7.42858 7.94303 7.42858 7.42857V2.78571C7.42858 2.27126 7.01446 1.85714 6.5 1.85714C5.98554 1.85714 5.57142 2.27126 5.57142 2.78571V7.42857C5.57142 7.94303 5.98554 8.35714 6.5 8.35714Z" fill="#EC974E"/>
</svg>
