<svg width="25" height="20" viewBox="0 0 25 20" fill="none" xmlns="http://www.w3.org/2000/svg">
<path d="M2.03002 3.73003C0.870007 3.73003 0 2.97946 0 1.97869C0 0.977922 0.870007 0.177307 2.03002 0.177307H22.5042C23.6642 0.177307 24.5922 0.977922 24.5922 1.97869C24.5922 2.97946 23.6642 3.73003 22.5042 3.73003H2.03002Z" fill="#3C3C3B"/>
<path d="M22.5042 8.08338C23.6642 8.08338 24.5922 8.884 24.5922 9.88477C24.5922 10.8855 23.6642 11.6361 22.5042 11.6361H2.03002C0.870007 11.6361 0 10.8855 0 9.88477C0 8.884 0.870007 8.08338 2.03002 8.08338H22.5042Z" fill="#3C3C3B"/>
<path d="M22.5042 16.0395C23.6642 16.0395 24.5922 16.7901 24.5922 17.7908C24.5922 18.7916 23.6642 19.5922 22.5042 19.5922H2.03002C0.870007 19.5922 0 18.7916 0 17.7908C0 16.7901 0.870007 16.0395 2.03002 16.0395H22.5042Z" fill="#3C3C3B"/>
</svg>
