<svg width="24" height="24" viewBox="0 0 24 24" fill="none" xmlns="http://www.w3.org/2000/svg">
<path d="M17.7251 23.6765H6.21028C2.97578 23.6765 0.323486 21.0242 0.323486 17.7897V6.21022C0.323486 2.97572 2.97578 0.323425 6.21028 0.323425H17.7251C20.9596 0.323425 23.6119 2.97572 23.6119 6.21022V17.725C23.6766 21.0242 21.0243 23.6765 17.7251 23.6765Z" stroke="#747373" stroke-miterlimit="10"/>
<path d="M18.1779 10.6091C18.1779 9.05656 16.9488 7.82745 15.3962 7.82745H8.34503C6.79246 7.82745 5.56335 9.05656 5.56335 10.6091V13.9083C5.56335 15.4609 6.79246 16.69 8.34503 16.69H15.3962C16.9488 16.69 18.1779 15.4609 18.1779 13.9083V10.6091ZM13.9731 12.4851L10.8032 14.0377C10.6739 14.1024 10.2857 14.0377 10.2857 13.8436V10.6091C10.2857 10.4797 10.7386 10.3504 10.8679 10.4151L13.9084 12.097C13.9731 12.2264 14.1024 12.4204 13.9731 12.4851Z" fill="#747373"/>
</svg>
