<svg width="37" height="25" viewBox="0 0 37 25" fill="none" xmlns="http://www.w3.org/2000/svg">
<path d="M33.3675 20.135V17.6407V15.7389V4.18678C33.3675 2.40397 31.9141 0.95 30.1307 0.95H6.82103C5.03738 0.95 3.59708 2.40424 3.59708 4.18678V17.6407V20.135H1.3084C1.21334 20.135 1.12219 20.1728 1.05498 20.24C0.987774 20.3072 0.95001 20.3984 0.95 20.4934V21.0717C0.95 22.857 2.41429 24.191 4.15845 24.2827L4.16003 24.2828L33.3675 20.135ZM33.3675 20.135H35.6433C35.7384 20.135 35.8295 20.1728 35.8968 20.24C35.964 20.3072 36.0017 20.3984 36.0017 20.4934V21.0717C36.0017 22.8571 34.5329 24.2828 32.7521 24.2828H23.2173H13.7343H4.1745L33.3675 20.135ZM1.66747 20.8635V21.0372C1.66747 22.4453 2.77527 23.4557 4.17684 23.5778C4.17715 23.5778 4.17776 23.5777 4.17886 23.5777C4.18045 23.5777 4.18391 23.5775 4.18788 23.5777H13.7343H23.2174H32.7522C34.1507 23.5777 35.285 22.4756 35.285 21.0834V20.8635H33.0734H23.8215H23.5345C23.4739 21.6814 22.7727 22.3027 21.9582 22.3027H19.0156H17.4094H14.9814H14.9808L1.66747 20.8635ZM1.66747 20.8635H3.87869H13.4174H1.66747ZM6.10906 3.26326L6.10903 3.26298L5.87012 3.62138H5.82012V3.6219V18.1934C5.82013 18.2884 5.85789 18.3796 5.9251 18.4468C5.99231 18.514 6.08347 18.5518 6.17851 18.5518H30.773C30.8681 18.5518 30.9592 18.514 31.0265 18.4468C31.0937 18.3796 31.1314 18.2884 31.1314 18.1934V3.62138C31.1314 3.52633 31.0937 3.43519 31.0265 3.36798C30.9592 3.30077 30.8681 3.26299 30.773 3.26298H6.18103C6.15709 3.26066 6.13298 3.26075 6.10906 3.26326ZM6.82103 1.6668H30.131C31.5267 1.6668 32.651 2.79189 32.651 4.18678V15.7389V17.6407V20.135H23.8216H23.1791H16.3816H13.773H4.31408V17.6407V4.18678C4.31408 2.79155 5.42559 1.6668 6.82103 1.6668ZM6.53691 3.97978H30.4146V17.835H6.53691V3.97978ZM14.9836 21.586C14.5419 21.5623 14.219 21.2757 14.1628 20.8635H16.3816H22.7894C22.7303 21.2813 22.3892 21.586 21.9586 21.586H19.016H17.4098H14.995C14.9913 21.5858 14.988 21.5859 14.9864 21.586L14.9841 21.586C14.9838 21.586 14.9836 21.586 14.9836 21.586Z" fill="#EC974E" stroke="#EC974E" stroke-width="0.1"/>
</svg>
