<svg width="24" height="24" viewBox="0 0 24 24" fill="none" xmlns="http://www.w3.org/2000/svg">
<path d="M17.7251 23.6765H6.21028C2.97578 23.6765 0.323486 21.0242 0.323486 17.7897V6.21022C0.323486 2.97572 2.97578 0.323425 6.21028 0.323425H17.7251C20.9596 0.323425 23.6119 2.97572 23.6119 6.21022V17.725C23.6766 21.0242 21.0243 23.6765 17.7251 23.6765Z" stroke="#747373" stroke-miterlimit="10"/>
<path d="M15.5902 7.69806C15.1374 7.69806 14.814 8.02151 14.814 8.47434C14.814 8.92717 15.1374 9.25062 15.5902 9.25062C16.0431 9.25062 16.3665 8.92717 16.3665 8.47434C16.3665 8.02151 15.9784 7.69806 15.5902 7.69806Z" fill="#747373"/>
<path d="M12.0323 8.66846C10.221 8.66846 8.73315 10.1563 8.73315 11.9676C8.73315 13.779 10.221 15.2668 12.0323 15.2668C13.8437 15.2668 15.3315 13.779 15.3315 11.9676C15.3962 10.1563 13.9084 8.66846 12.0323 8.66846ZM12.0323 14.1671C10.8679 14.1671 9.89758 13.1968 9.89758 12.0323C9.89758 10.8679 10.8679 9.89757 12.0323 9.89757C13.1968 9.89757 14.1671 10.8679 14.1671 12.0323C14.1671 13.1968 13.1968 14.1671 12.0323 14.1671Z" fill="#747373"/>
<path d="M14.6846 18.7601H9.31534C7.05119 18.7601 5.23987 16.9488 5.23987 14.6846V9.31534C5.23987 7.05119 7.05119 5.23987 9.31534 5.23987H14.6846C16.9488 5.23987 18.7601 7.05119 18.7601 9.31534V14.6846C18.7601 16.9488 16.9488 18.7601 14.6846 18.7601ZM9.31534 6.53367C7.76278 6.53367 6.53367 7.76278 6.53367 9.31534V14.6846C6.53367 16.2372 7.76278 17.4663 9.31534 17.4663H14.6846C16.2372 17.4663 17.4663 16.2372 17.4663 14.6846V9.31534C17.4663 7.76278 16.2372 6.53367 14.6846 6.53367H9.31534Z" fill="#747373"/>
</svg>
