<svg width="23" height="22" viewBox="0 0 23 22" fill="none" xmlns="http://www.w3.org/2000/svg">
<path d="M5.05999 5.68533C4.29915 5.68533 3.67999 5.10744 3.67999 4.39733C3.67999 3.68721 4.29915 3.10933 5.05999 3.10933C5.82083 3.10933 6.43999 3.68721 6.43999 4.39733C6.43999 5.10744 5.82083 5.68533 5.05999 5.68533ZM5.05999 3.96799C4.80607 3.96799 4.59999 4.16119 4.59999 4.39733C4.59999 4.63346 4.80607 4.82666 5.05999 4.82666C5.31391 4.82666 5.51999 4.63346 5.51999 4.39733C5.51999 4.16119 5.31391 3.96799 5.05999 3.96799Z" fill="#3c3c3b"/>
<path d="M5.05999 11.696C4.29915 11.696 3.67999 11.1181 3.67999 10.408C3.67999 9.69787 4.29915 9.11999 5.05999 9.11999C5.82083 9.11999 6.43999 9.69787 6.43999 10.408C6.43999 11.1181 5.82083 11.696 5.05999 11.696ZM5.05999 9.97866C4.80607 9.97866 4.59999 10.1719 4.59999 10.408C4.59999 10.6441 4.80607 10.8373 5.05999 10.8373C5.31391 10.8373 5.51999 10.6441 5.51999 10.408C5.51999 10.1719 5.31391 9.97866 5.05999 9.97866Z" fill="#3c3c3b"/>
<path d="M19.6458 20.2827H3.35417C1.50458 20.2827 0 18.8733 0 17.1407V3.67527C0 1.94271 1.50458 0.533325 3.35417 0.533325H19.6458C21.4954 0.533325 23 1.94271 23 3.67527V17.1407C23 18.8733 21.4954 20.2827 19.6458 20.2827ZM3.35417 1.43102C2.03358 1.43102 0.958333 2.43824 0.958333 3.67527V17.1407C0.958333 18.3777 2.03358 19.385 3.35417 19.385H19.6458C20.9664 19.385 22.0417 18.3777 22.0417 17.1407V3.67527C22.0417 2.43824 20.9664 1.43102 19.6458 1.43102H3.35417Z" fill="#3c3c3b"/>
<path d="M5.05999 17.7067C4.29915 17.7067 3.67999 17.1288 3.67999 16.4187C3.67999 15.7085 4.29915 15.1307 5.05999 15.1307C5.82083 15.1307 6.43999 15.7085 6.43999 16.4187C6.43999 17.1288 5.82083 17.7067 5.05999 17.7067ZM5.05999 15.9893C4.80607 15.9893 4.59999 16.1825 4.59999 16.4187C4.59999 16.6548 4.80607 16.848 5.05999 16.848C5.31391 16.848 5.51999 16.6548 5.51999 16.4187C5.51999 16.1825 5.31391 15.9893 5.05999 15.9893Z" fill="#3c3c3b"/>
<path d="M6.90001 22H3.22001C2.96609 22 2.76001 21.8068 2.76001 21.5707V19.8533C2.76001 19.6172 2.96609 19.424 3.22001 19.424H6.90001C7.15393 19.424 7.36001 19.6172 7.36001 19.8533V21.5707C7.36001 21.8068 7.15393 22 6.90001 22ZM3.68001 21.1413H6.44001V20.2827H3.68001V21.1413Z" fill="#3c3c3b"/>
<path d="M19.78 22H16.1C15.847 22 15.64 21.8068 15.64 21.5707V19.8533C15.64 19.6172 15.847 19.424 16.1 19.424H19.78C20.033 19.424 20.24 19.6172 20.24 19.8533V21.5707C20.24 21.8068 20.033 22 19.78 22ZM16.56 21.1413H19.32V20.2827H16.56V21.1413Z" fill="#3c3c3b"/>
<path d="M21.62 14.272H1.37998C1.12606 14.272 0.919983 14.0788 0.919983 13.8427C0.919983 13.6065 1.12606 13.4133 1.37998 13.4133H21.62C21.873 13.4133 22.08 13.6065 22.08 13.8427C22.08 14.0788 21.873 14.272 21.62 14.272Z" fill="#3c3c3b"/>
<path d="M21.62 7.40266H1.37998C1.12606 7.40266 0.919983 7.21032 0.919983 6.97332C0.919983 6.73633 1.12606 6.54399 1.37998 6.54399H21.62C21.873 6.54399 22.08 6.73633 22.08 6.97332C22.08 7.21032 21.873 7.40266 21.62 7.40266Z" fill="#3c3c3b"/>
<path d="M16.56 3.53866C16.56 3.77586 16.3542 3.96799 16.1 3.96799C15.8459 3.96799 15.64 3.77586 15.64 3.53866C15.64 3.30145 15.8459 3.10933 16.1 3.10933C16.3542 3.10933 16.56 3.30145 16.56 3.53866Z" fill="#3c3c3b"/>
<path d="M18.4 3.53866C18.4 3.77586 18.1941 3.96799 17.94 3.96799C17.6858 3.96799 17.48 3.77586 17.48 3.53866C17.48 3.30145 17.6858 3.10933 17.94 3.10933C18.1941 3.10933 18.4 3.30145 18.4 3.53866Z" fill="#3c3c3b"/>
<path d="M20.24 3.53866C20.24 3.77586 20.0342 3.96799 19.78 3.96799C19.5259 3.96799 19.32 3.77586 19.32 3.53866C19.32 3.30145 19.5259 3.10933 19.78 3.10933C20.0342 3.10933 20.24 3.30145 20.24 3.53866Z" fill="#3c3c3b"/>
<path d="M16.56 9.54932C16.56 9.78653 16.3542 9.97866 16.1 9.97866C15.8459 9.97866 15.64 9.78653 15.64 9.54932C15.64 9.31212 15.8459 9.11999 16.1 9.11999C16.3542 9.11999 16.56 9.31212 16.56 9.54932Z" fill="#3c3c3b"/>
<path d="M18.4 9.54932C18.4 9.78653 18.1941 9.97866 17.94 9.97866C17.6858 9.97866 17.48 9.78653 17.48 9.54932C17.48 9.31212 17.6858 9.11999 17.94 9.11999C18.1941 9.11999 18.4 9.31212 18.4 9.54932Z" fill="#3c3c3b"/>
<path d="M20.24 9.54932C20.24 9.78653 20.0342 9.97866 19.78 9.97866C19.5259 9.97866 19.32 9.78653 19.32 9.54932C19.32 9.31212 19.5259 9.11999 19.78 9.11999C20.0342 9.11999 20.24 9.31212 20.24 9.54932Z" fill="#3c3c3b"/>
<path d="M16.56 16.4187C16.56 16.6559 16.3542 16.848 16.1 16.848C15.8459 16.848 15.64 16.6559 15.64 16.4187C15.64 16.1815 15.8459 15.9893 16.1 15.9893C16.3542 15.9893 16.56 16.1815 16.56 16.4187Z" fill="#3c3c3b"/>
<path d="M18.4 16.4187C18.4 16.6559 18.1941 16.848 17.94 16.848C17.6858 16.848 17.48 16.6559 17.48 16.4187C17.48 16.1815 17.6858 15.9893 17.94 15.9893C18.1941 15.9893 18.4 16.1815 18.4 16.4187Z" fill="#3c3c3b"/>
<path d="M20.24 16.4187C20.24 16.6559 20.0342 16.848 19.78 16.848C19.5259 16.848 19.32 16.6559 19.32 16.4187C19.32 16.1815 19.5259 15.9893 19.78 15.9893C20.0342 15.9893 20.24 16.1815 20.24 16.4187Z" fill="#3c3c3b"/>
</svg>
