<svg width="25" height="19" viewBox="0 0 25 19" fill="none" xmlns="http://www.w3.org/2000/svg">
<path d="M20.2517 0H4.58032C3.36599 0.00147788 2.20183 0.48452 1.34318 1.34318C0.48452 2.20183 0.00147788 3.36599 0 4.58032V14.0351C0.00147788 15.2494 0.48452 16.4136 1.34318 17.2722C2.20183 18.1309 3.36599 18.6139 4.58032 18.6154H19.6197C20.834 18.6139 21.9982 18.1309 22.8568 17.2722C23.7155 16.4136 24.1985 15.2494 24.2 14.0351V3.94832C24.1988 2.90154 23.7824 1.89798 23.0422 1.1578C22.302 0.41761 21.2985 0.00123165 20.2517 0ZM4.58032 1.86154H20.2517C20.8049 1.86228 21.3353 2.08237 21.7264 2.47356C22.1176 2.86475 22.3377 3.3951 22.3385 3.94832V4.07863L12.1 9.19786L1.90994 4.10283C2.02184 3.47554 2.35053 2.90747 2.8386 2.49783C3.32667 2.08818 3.94312 1.86298 4.58032 1.86154ZM19.6197 16.7538H4.58032C3.85955 16.7529 3.16859 16.4661 2.65894 15.9564C2.14928 15.4468 1.86252 14.7558 1.86154 14.0351V6.15983L11.6839 11.0762C11.8131 11.1407 11.9556 11.1743 12.1 11.1743C12.2444 11.1743 12.3869 11.1407 12.5161 11.0762L22.3385 6.15983V14.0351C22.3375 14.7558 22.0507 15.4468 21.5411 15.9564C21.0314 16.4661 20.3404 16.7529 19.6197 16.7538Z" fill="#EC974E"/>
</svg>
