<svg width="13" height="21" viewBox="0 0 13 21" fill="none" xmlns="http://www.w3.org/2000/svg">
<path fill-rule="evenodd" clip-rule="evenodd" d="M10.7071 10.7072L11.4142 10L2.4142 1.00005L1.70709 1.70715L9.99999 10L0.999986 19L1.70709 19.7072L10.7071 10.7072Z" fill="#EC974E"/>
<path d="M11.4142 10L11.7678 10.3536L12.1213 10L11.7678 9.64649L11.4142 10ZM2.4142 1.00005L2.76775 0.646493L2.4142 0.29294L2.06065 0.646493L2.4142 1.00005ZM1.70709 1.70715L1.35354 1.3536L0.999985 1.70715L1.35354 2.06071L1.70709 1.70715ZM9.99999 10L10.3535 10.3536L10.7071 10L10.3535 9.64649L9.99999 10ZM0.999986 19L0.646432 18.6465L0.292879 19L0.646432 19.3536L0.999986 19ZM1.70709 19.7072L1.35354 20.0607L1.70709 20.4143L2.06065 20.0607L1.70709 19.7072ZM11.0606 9.64649L10.3535 10.3536L11.0606 11.0607L11.7678 10.3536L11.0606 9.64649ZM2.06065 1.3536L11.0606 10.3536L11.7678 9.64649L2.76775 0.646493L2.06065 1.3536ZM2.06065 2.06071L2.76775 1.3536L2.06065 0.646493L1.35354 1.3536L2.06065 2.06071ZM10.3535 9.64649L2.06065 1.3536L1.35354 2.06071L9.64643 10.3536L10.3535 9.64649ZM1.35354 19.3536L10.3535 10.3536L9.64643 9.64649L0.646432 18.6465L1.35354 19.3536ZM2.06065 19.3536L1.35354 18.6465L0.646432 19.3536L1.35354 20.0607L2.06065 19.3536ZM10.3535 10.3536L1.35354 19.3536L2.06065 20.0607L11.0606 11.0607L10.3535 10.3536Z" fill="#EC974E"/>
</svg>
