<svg width="24" height="25" viewBox="0 0 24 25" fill="none" xmlns="http://www.w3.org/2000/svg">
<path d="M5.89673 25C5.78909 25 5.68075 24.9758 5.58045 24.9273C5.33722 24.8082 5.18275 24.5637 5.181 24.295L5.15269 19.6624H4.96328C2.22652 19.6624 0 17.456 0 14.7439V4.91786C0 2.2058 2.22652 0 4.96328 0H19.0367C21.7735 0 24 2.2058 24 4.91786V14.7439C24 17.456 21.7735 19.6624 19.0367 19.6624H13.2298L6.32973 24.8553C6.20287 24.9508 6.05015 25 5.89673 25ZM4.96328 1.41836C3.01599 1.41836 1.43146 2.98839 1.43146 4.91786V14.7439C1.43146 16.6741 3.01599 18.2441 4.96328 18.2441H5.86423C6.25774 18.2441 6.57751 18.5592 6.57996 18.9491L6.60372 22.8683L12.5557 18.3888C12.6804 18.2946 12.8325 18.2441 12.9887 18.2441H19.0367C20.984 18.2441 22.5685 16.6741 22.5685 14.7439V4.91786C22.5685 2.98839 20.984 1.41836 19.0367 1.41836H4.96328ZM12 8.11848C11.0526 8.11848 10.2846 8.87947 10.2846 9.81819C10.2846 10.7569 11.0526 11.5179 12 11.5179C12.9474 11.5179 13.7154 10.7569 13.7154 9.81819C13.7154 8.87947 12.9474 8.11848 12 8.11848ZM18.1025 8.11848C17.1551 8.11848 16.3871 8.87947 16.3871 9.81819C16.3871 10.7569 17.1551 11.5179 18.1025 11.5179C19.0498 11.5179 19.8179 10.7569 19.8179 9.81819C19.8179 8.87947 19.0498 8.11848 18.1025 8.11848ZM5.89754 8.11848C4.95015 8.11848 4.18214 8.87947 4.18214 9.81819C4.18214 10.7569 4.95015 11.5179 5.89754 11.5179C6.84494 11.5179 7.61295 10.7569 7.61295 9.81819C7.61295 8.87947 6.84494 8.11848 5.89754 8.11848Z" fill="#EC974E"/>
</svg>
