<svg width="19" height="20" viewBox="0 0 19 20" fill="none" xmlns="http://www.w3.org/2000/svg">
<path d="M11.744 13.2779L14.2477 10.6424L16.9017 7.84872C17.605 7.10748 18 6.10269 18 5.05506C18 4.00743 17.605 3.00264 16.9017 2.2614V2.2614C16.1975 1.52107 15.243 1.10524 14.2477 1.10524C13.2525 1.10524 12.2979 1.52107 11.5937 2.2614L9.81607 4.13262L7.88818 6.16198" stroke="#EC974E" stroke-width="1.71429" stroke-linecap="round" stroke-linejoin="round"/>
<path d="M5.43446 8.74481L2.78048 11.5385C2.07717 12.2797 1.68213 13.2845 1.68213 14.3321C1.68213 15.3798 2.07717 16.3846 2.78048 17.1258V17.1258C3.48466 17.8661 4.43921 18.282 5.43446 18.282C6.4297 18.282 7.38425 17.8661 8.08844 17.1258L9.34031 15.808" stroke="#EC974E" stroke-width="1.71429" stroke-linecap="round" stroke-linejoin="round"/>
<path d="M6.27319 3.19701L13.3588 16.2429" stroke="#EC974E" stroke-width="1.71429" stroke-linecap="round" stroke-linejoin="round"/>
</svg>
