<svg width="24" height="24" viewBox="0 0 24 24" fill="none" xmlns="http://www.w3.org/2000/svg">
<path d="M7.43942 8.40965C8.22542 8.40965 8.8626 7.77248 8.8626 6.98647C8.8626 6.20047 8.22542 5.56329 7.43942 5.56329C6.65341 5.56329 6.01624 6.20047 6.01624 6.98647C6.01624 7.77248 6.65341 8.40965 7.43942 8.40965Z" fill="#747373"/>
<path d="M18.1779 18.1779V12.8086C18.1779 8.60372 13.7143 8.79779 12.6146 10.8679V9.4447H10.2211V18.1779H12.6146V13.7142C12.6146 11.256 15.7844 11.0619 15.7844 13.7142V18.1779H18.1779Z" fill="#747373"/>
<path d="M8.60386 9.4447H6.21033V18.1779H8.60386V9.4447Z" fill="#747373"/>
<path d="M17.7251 23.6765H6.21028C2.97578 23.6765 0.323486 21.0242 0.323486 17.7897V6.21022C0.323486 2.97572 2.97578 0.323425 6.21028 0.323425H17.7251C20.9596 0.323425 23.6119 2.97572 23.6119 6.21022V17.725C23.6766 21.0242 21.0243 23.6765 17.7251 23.6765Z" stroke="#747373" stroke-miterlimit="10"/>
</svg>
