<svg width="24" height="24" viewBox="0 0 24 24" fill="none" xmlns="http://www.w3.org/2000/svg">
<path d="M17.7251 23.6765H6.21028C2.97578 23.6765 0.323486 21.0242 0.323486 17.7897V6.21022C0.323486 2.97572 2.97578 0.323425 6.21028 0.323425H17.7251C20.9596 0.323425 23.6119 2.97572 23.6119 6.21022V17.725C23.6766 21.0242 21.0243 23.6765 17.7251 23.6765Z" stroke="#747373" stroke-miterlimit="10"/>
<path d="M15.3316 12.8733L15.7197 10.2857H13.2615V8.60377C13.2615 7.89218 13.585 7.18059 14.6847 7.18059H15.7844V5.04582C15.7844 5.04582 14.7494 4.85175 13.779 4.85175C11.709 4.85175 10.4152 6.08086 10.4152 8.34501V10.2857H8.151V12.8733H10.4152V19.0836H13.1968V12.8733H15.3316Z" fill="#747373"/>
</svg>
