<svg width="4000" height="62" viewBox="0 0 116 62" fill="none" xmlns="http://www.w3.org/2000/svg">
<path d="M37.1904 51.9553C30.8802 27.4539 24.1348 14.1778 19.3477 7.162C17.9333 5.43503 15.975 4.24773 13.9079 3.81599C13.7991 3.81599 13.7991 3.81599 13.6903 3.81599C13.1463 3.70806 12.6024 3.60012 12.0584 3.60012C11.8408 3.60012 11.6232 3.60012 11.5144 3.60012C11.0792 3.60012 10.5352 3.60012 10.1 3.60012C9.88238 3.60012 9.77358 3.70806 9.55599 3.70806C9.1208 3.81599 8.57683 3.92393 8.14164 4.03186C7.92405 4.1398 7.70648 4.1398 7.48888 4.24773C7.16249 4.35567 6.83608 4.46361 6.50969 4.67948C6.29209 4.78741 6.07453 4.89535 5.85693 5.00328C4.11618 5.9747 2.81058 7.4858 1.9402 9.10484C1.9402 9.10484 1.94023 9.21277 1.83143 9.21277C1.72264 9.42865 1.61383 9.53658 1.61383 9.75245C1.39623 10.1842 1.28748 10.508 1.17868 10.9397C0.417101 13.5302 0.634655 16.4445 2.15781 19.0349L2.26665 19.2508C3.02823 20.8698 4.00736 22.7047 5.42172 24.7555C14.2343 37.1681 32.1858 49.5807 36.4288 52.6029C36.6464 52.7108 36.864 52.6029 36.864 52.6029C37.2992 52.2791 37.1904 51.9553 37.1904 51.9553Z" fill="#9AA0A7"/>
<path d="M113.918 29.4806C112.604 27.438 110.743 26.1479 108.662 25.3954C108.333 25.2879 108.005 25.1804 107.676 25.0729C107.567 25.0729 107.457 24.9654 107.348 24.9654C106.91 24.8579 106.362 24.7504 105.815 24.7504C105.486 24.7504 105.048 24.7504 104.72 24.7504H104.61C103.406 24.8579 102.201 25.0729 100.996 25.5029C98.9158 26.2555 96.3972 27.5455 93.6595 29.5881C81.3948 38.7259 69.349 56.8939 66.5018 61.0866C66.3923 61.3016 66.5018 61.5166 66.5018 61.5166C66.7208 61.7316 66.9398 61.6241 66.9398 61.6241C84.3514 56.6789 95.9591 51.6263 103.844 47.3261C104.282 47.1111 104.72 47.0036 105.158 46.6811L110.633 43.3485C115.451 40.5534 116.984 34.2107 113.918 29.4806Z" fill="#9AA0A7"/>
<path d="M74.1031 10.6321C74.1031 10.2025 74.1031 9.66556 74.1031 9.23598C74.1031 8.9138 73.9927 8.59161 73.8824 8.26943C73.8824 8.05464 73.772 7.73245 73.772 7.51766C73.1098 5.15497 71.675 3.11446 69.4677 1.71832C69.3573 1.61093 69.247 1.61093 69.1366 1.50353C68.6951 1.28874 68.2537 1.07395 67.8122 0.859161C67.7018 0.751766 67.5915 0.751766 67.3708 0.751766C67.15 0.644371 66.8189 0.536976 66.5982 0.42958C65.0531 -2.67295e-07 63.3975 -0.107395 61.9628 0.107395C60.4177 0.322186 58.7621 0.859161 57.1066 2.1479C56.9963 2.2553 56.8859 2.2553 56.7755 2.36269C56.5548 2.57748 56.4444 2.68488 56.2237 2.89967C55.3408 3.65144 54.6786 4.61799 54.1268 5.69194C53.0231 7.62506 52.0298 10.0951 51.3676 13.317C48.0566 28.1375 50.9261 49.5092 51.5883 54.5567C51.6987 54.8789 51.809 54.8789 51.809 54.8789C52.1401 54.9863 52.2505 54.6641 52.2505 54.6641C62.625 39.3066 68.364 27.8153 71.4543 19.4385C71.5647 19.2237 71.5647 19.1163 71.675 19.0089L71.7854 18.5794C72.4476 16.861 72.8891 15.2501 73.3305 13.854L73.5513 13.1022C73.5513 12.9948 73.5513 12.78 73.6616 12.6726C73.772 12.3504 73.8824 12.0283 73.8824 11.7061C73.8824 11.4913 73.8824 11.3839 73.8824 11.1691C73.9927 10.9543 73.9927 10.7395 74.1031 10.6321Z" fill="#9AA0A7"/>
</svg>
