<svg width="24" height="24" fill="none" xmlns="http://www.w3.org/2000/svg"><path d="M7.44 8.41a1.423 1.423 0 100-2.847 1.423 1.423 0 000 2.847zm10.738 9.768v-5.37c0-4.204-4.464-4.01-5.563-1.94V9.445H10.22v8.733h2.394v-4.464c0-2.458 3.17-2.652 3.17 0v4.464h2.393zM8.604 9.445H6.21v8.733h2.394V9.445z" fill="#747373"/><path d="M17.725 23.677H6.21c-3.234 0-5.887-2.653-5.887-5.887V6.21C.323 2.976 2.976.323 6.21.323h11.515c3.235 0 5.887 2.653 5.887 5.887v11.515c.065 3.3-2.588 5.951-5.887 5.951z" stroke="#747373" stroke-miterlimit="10"/></svg>