<svg width="19" height="20" fill="none" xmlns="http://www.w3.org/2000/svg"><path d="M11.744 13.278l2.504-2.636 2.654-2.793A4.061 4.061 0 0018 5.055a4.061 4.061 0 00-1.098-2.794v0a3.663 3.663 0 00-2.654-1.156c-.995 0-1.95.416-2.654 1.156L9.816 4.133 7.888 6.162M5.434 8.745L2.78 11.539a4.061 4.061 0 00-1.098 2.793c0 1.048.395 2.053 1.098 2.794v0a3.663 3.663 0 002.654 1.156c.996 0 1.95-.416 2.654-1.156l1.252-1.318M6.273 3.197l7.086 13.046" stroke="#EC974E" stroke-width="1.714" stroke-linecap="round" stroke-linejoin="round"/></svg>