<svg width="18" height="28" fill="none" xmlns="http://www.w3.org/2000/svg"><path d="M13.858 0H3.835C1.93 0 .385 1.547.385 3.48v20.224c0 1.904 1.546 3.48 3.45 3.48h10.023c1.903 0 3.45-1.547 3.45-3.48V3.48c0-1.933-1.547-3.48-3.45-3.48zm2.17 22.812v.892c0 1.19-.98 2.171-2.17 2.171H3.835a2.183 2.183 0 01-2.171-2.17v-.893h14.365zm0-17.19v15.881H1.694V5.621H16.03zm0-2.142v.862H1.694V3.48c0-1.19.982-2.171 2.172-2.171h10.022c1.16 0 2.142.951 2.142 2.17z" fill="#EC974E"/><path d="M8.861 24.983a.8.8 0 00.803-.803.8.8 0 00-.803-.803.8.8 0 00-.803.803.8.8 0 00.803.803z" fill="#EC974E"/></svg>