<svg width="37" height="25" fill="none" xmlns="http://www.w3.org/2000/svg"><path d="M33.367 20.135V4.187A3.243 3.243 0 0030.131.95H6.82a3.232 3.232 0 00-3.224 3.237v15.948H1.308a.358.358 0 00-.358.358v.579c0 1.785 1.464 3.119 3.208 3.21h.002l29.207-4.147zm0 0h2.276a.359.359 0 01.359.358v.579c0 1.785-1.47 3.21-3.25 3.21H4.174l29.193-4.147zm-31.7.728v.174c0 1.408 1.108 2.419 2.51 2.54h28.575c1.399 0 2.533-1.101 2.533-2.494v-.22H23.534c-.06.818-.761 1.44-1.576 1.44h-6.977 0l-13.314-1.44zm0 0h11.75-11.75zm4.442-17.6h0l-.239.358h-.05v14.572a.358.358 0 00.359.359h24.594a.359.359 0 00.358-.359V3.621a.358.358 0 00-.358-.358H6.181a.358.358 0 00-.072 0zm.712-1.596h23.31a2.515 2.515 0 012.52 2.52v15.948H4.314V4.187a2.504 2.504 0 012.507-2.52zM6.537 3.98h23.878v13.855H6.537V3.98zm8.447 17.606c-.442-.024-.765-.31-.821-.723h8.626a.828.828 0 01-.83.723h-6.964a.08.08 0 00-.009 0h-.002s0 0 0 0z" fill="#EC974E" stroke="#EC974E" stroke-width=".1"/></svg>