<svg width="23" height="22" fill="none" xmlns="http://www.w3.org/2000/svg"><path d="M5.06 5.685c-.76 0-1.38-.578-1.38-1.288 0-.71.62-1.288 1.38-1.288.76 0 1.38.578 1.38 1.288 0 .71-.62 1.288-1.38 1.288zm0-1.717c-.254 0-.46.193-.46.43 0 .235.206.429.46.429s.46-.194.46-.43-.206-.429-.46-.429zm0 7.728c-.76 0-1.38-.578-1.38-1.288 0-.71.62-1.288 1.38-1.288.76 0 1.38.578 1.38 1.288 0 .71-.62 1.288-1.38 1.288zm0-1.717c-.254 0-.46.193-.46.429s.206.43.46.43.46-.194.46-.43-.206-.43-.46-.43z" fill="#3c3c3b"/><path d="M19.646 20.283H3.354C1.504 20.283 0 18.873 0 17.14V3.675C0 1.943 1.505.533 3.354.533h16.292C21.496.533 23 1.943 23 3.675v13.466c0 1.732-1.505 3.142-3.354 3.142zM3.354 1.43C2.034 1.43.958 2.437.958 3.674V17.14c0 1.237 1.076 2.244 2.396 2.244h16.292c1.32 0 2.396-1.007 2.396-2.244V3.675c0-1.237-1.076-2.244-2.396-2.244H3.354z" fill="#3c3c3b"/><path d="M5.06 17.707c-.76 0-1.38-.578-1.38-1.288 0-.71.62-1.288 1.38-1.288.76 0 1.38.578 1.38 1.288 0 .71-.62 1.288-1.38 1.288zm0-1.718c-.254 0-.46.194-.46.43s.206.429.46.429.46-.193.46-.43c0-.235-.206-.429-.46-.429zM6.9 22H3.22c-.254 0-.46-.193-.46-.43v-1.717c0-.236.206-.429.46-.429H6.9c.254 0 .46.193.46.43v1.717c0 .236-.206.429-.46.429zm-3.22-.859h2.76v-.858H3.68v.858zm16.1.859H16.1c-.253 0-.46-.193-.46-.43v-1.717c0-.236.207-.429.46-.429h3.68c.253 0 .46.193.46.43v1.717c0 .236-.207.429-.46.429zm-3.22-.859h2.76v-.858h-2.76v.858zm5.06-6.869H1.38c-.254 0-.46-.193-.46-.43 0-.236.206-.429.46-.429h20.24c.253 0 .46.194.46.43s-.207.429-.46.429zm0-6.869H1.38c-.254 0-.46-.193-.46-.43s.206-.429.46-.429h20.24c.253 0 .46.192.46.43 0 .236-.207.429-.46.429zm-5.06-3.864c0 .237-.206.429-.46.429s-.46-.192-.46-.43c0-.237.206-.429.46-.429s.46.192.46.43zm1.84 0c0 .237-.206.429-.46.429s-.46-.192-.46-.43c0-.237.206-.429.46-.429s.46.192.46.43zm1.84 0c0 .237-.206.429-.46.429s-.46-.192-.46-.43c0-.237.206-.429.46-.429s.46.192.46.43zM16.56 9.55c0 .237-.206.429-.46.429s-.46-.192-.46-.43c0-.237.206-.429.46-.429s.46.192.46.43zm1.84 0c0 .237-.206.429-.46.429s-.46-.192-.46-.43c0-.237.206-.429.46-.429s.46.192.46.43zm1.84 0c0 .237-.206.429-.46.429s-.46-.192-.46-.43c0-.237.206-.429.46-.429s.46.192.46.43zm-3.68 6.869c0 .237-.206.429-.46.429s-.46-.192-.46-.43c0-.236.206-.429.46-.429s.46.192.46.43zm1.84 0c0 .237-.206.429-.46.429s-.46-.192-.46-.43c0-.236.206-.429.46-.429s.46.192.46.43zm1.84 0c0 .237-.206.429-.46.429s-.46-.192-.46-.43c0-.236.206-.429.46-.429s.46.192.46.43z" fill="#3c3c3b"/></svg>