<svg width="24" height="24" fill="none" xmlns="http://www.w3.org/2000/svg"><path d="M17.725 23.677H6.21c-3.234 0-5.887-2.653-5.887-5.887V6.21C.323 2.976 2.976.323 6.21.323h11.515c3.235 0 5.887 2.653 5.887 5.887v11.515c.065 3.3-2.588 5.951-5.887 5.951z" stroke="#747373" stroke-miterlimit="10"/><path d="M15.59 7.698a.747.747 0 00-.776.776c0 .453.323.777.776.777a.747.747 0 00.776-.777.787.787 0 00-.776-.776zm-3.558.97a3.313 3.313 0 00-3.299 3.3 3.313 3.313 0 003.3 3.299 3.314 3.314 0 003.299-3.3c.064-1.81-1.424-3.299-3.3-3.299zm0 5.5a2.154 2.154 0 01-2.134-2.136c0-1.164.97-2.134 2.134-2.134 1.165 0 2.135.97 2.135 2.134 0 1.165-.97 2.135-2.135 2.135z" fill="#747373"/><path d="M14.685 18.76h-5.37a4.059 4.059 0 01-4.075-4.075v-5.37A4.059 4.059 0 019.315 5.24h5.37a4.059 4.059 0 014.075 4.075v5.37a4.059 4.059 0 01-4.075 4.075zM9.315 6.534a2.761 2.761 0 00-2.781 2.781v5.37a2.761 2.761 0 002.781 2.781h5.37a2.761 2.761 0 002.781-2.781v-5.37a2.761 2.761 0 00-2.781-2.781h-5.37z" fill="#747373"/></svg>