<svg width="24" height="24" fill="none" xmlns="http://www.w3.org/2000/svg"><path d="M17.725 23.677H6.21c-3.234 0-5.887-2.653-5.887-5.887V6.21C.323 2.976 2.976.323 6.21.323h11.515c3.235 0 5.887 2.653 5.887 5.887v11.515c.065 3.3-2.588 5.951-5.887 5.951z" stroke="#747373" stroke-miterlimit="10"/><path d="M15.332 12.873l.388-2.587h-2.46V8.604c0-.712.324-1.423 1.424-1.423h1.1V5.046s-1.036-.194-2.006-.194c-2.07 0-3.364 1.229-3.364 3.493v1.94H8.151v2.588h2.264v6.21h2.782v-6.21h2.135z" fill="#747373"/></svg>