<svg width="24" height="25" fill="none" xmlns="http://www.w3.org/2000/svg"><path d="M5.897 25a.71.71 0 01-.716-.705l-.028-4.633h-.19C2.227 19.662 0 17.456 0 14.744V4.918C0 2.206 2.227 0 4.963 0h14.074C21.773 0 24 2.206 24 4.918v9.826c0 2.712-2.227 4.918-4.963 4.918H13.23l-6.9 5.193a.72.72 0 01-.433.145zM4.963 1.418c-1.947 0-3.532 1.57-3.532 3.5v9.826c0 1.93 1.585 3.5 3.532 3.5h.901c.394 0 .714.315.716.705l.024 3.92 5.952-4.48a.718.718 0 01.433-.145h6.048c1.947 0 3.532-1.57 3.532-3.5V4.918c0-1.93-1.585-3.5-3.532-3.5H4.963zM12 8.118c-.947 0-1.715.761-1.715 1.7s.768 1.7 1.715 1.7c.947 0 1.715-.761 1.715-1.7s-.768-1.7-1.715-1.7zm6.102 0c-.947 0-1.715.761-1.715 1.7s.768 1.7 1.715 1.7c.948 0 1.716-.761 1.716-1.7s-.768-1.7-1.716-1.7zm-12.204 0c-.948 0-1.716.761-1.716 1.7s.768 1.7 1.716 1.7c.947 0 1.715-.761 1.715-1.7s-.768-1.7-1.715-1.7z" fill="#EC974E"/></svg>