<svg width="13" height="21" fill="none" xmlns="http://www.w3.org/2000/svg"><path fill-rule="evenodd" clip-rule="evenodd" d="M10.707 10.707l.707-.707-9-9-.707.707L10 10l-9 9 .707.707 9-9z" fill="#EC974E"/><path d="M11.414 10l.354.354.353-.354-.353-.354-.354.354zm-9-9l.354-.354-.354-.353-.353.353.353.354zm-.707.707l-.353-.353L1 1.707l.354.354.353-.354zM10 10l.354.354.353-.354-.354-.354L10 10zm-9 9l-.354-.354L.293 19l.353.354L1 19zm.707.707l-.353.354.353.353.354-.353-.354-.354zm9.354-10.06l-.707.707.707.707.707-.707-.707-.708zm-9-8.293l9 9 .707-.708-9-9-.707.708zm0 .707l.707-.707L2.06.646l-.707.708.707.707zm8.293 7.585L2.06 1.354l-.707.707 8.292 8.293.707-.708zm-9 9.708l9-9-.708-.708-9 9 .708.708zm.707 0l-.707-.707-.708.707.708.707.707-.707zm8.293-9l-9 9 .707.707 9-9-.707-.707z" fill="#EC974E"/></svg>