<svg width="24" height="24" fill="none" xmlns="http://www.w3.org/2000/svg"><path d="M17.725 23.677H6.21c-3.234 0-5.887-2.653-5.887-5.887V6.21C.323 2.976 2.976.323 6.21.323h11.515c3.235 0 5.887 2.653 5.887 5.887v11.515c.065 3.3-2.588 5.951-5.887 5.951z" stroke="#747373" stroke-miterlimit="10"/><path d="M18.178 10.61a2.761 2.761 0 00-2.782-2.783H8.345a2.761 2.761 0 00-2.782 2.782v3.3a2.761 2.761 0 002.782 2.781h7.051a2.761 2.761 0 002.782-2.782V10.61zm-4.205 1.875l-3.17 1.553c-.13.064-.517 0-.517-.194v-3.235c0-.13.453-.259.582-.194l3.04 1.682c.065.13.194.323.065.388z" fill="#747373"/></svg>